<svg xmlns="http://www.w3.org/2000/svg" xmlns:xlink="http://www.w3.org/1999/xlink" contentStyleType="text/css" data-diagram-type="CLASS" height="729px" preserveAspectRatio="none" style="width:1055px;height:729px;background:#FFFFFF;" version="1.1" viewBox="0 0 1055 729" width="1055px" zoomAndPan="magnify"><defs/><g><!--class User--><g class="entity" data-entity="User" data-source-line="7" data-uid="ent0002" id="entity_User"><rect fill="#F1F1F1" height="184.8516" rx="2.5" ry="2.5" style="stroke:#2E75B6;stroke-width:0.5;" width="221.0376" x="331.5" y="7"/><rect fill="#D6E4F0" height="28" rx="2.5" ry="2.5" style="stroke:#D6E4F0;stroke-width:0.5;" width="221.0376" x="331.5" y="7"/><rect fill="#D6E4F0" height="2.5" style="stroke:#D6E4F0;stroke-width:0.5;" width="221.0376" x="331.5" y="32.5"/><rect fill="none" height="184.8516" rx="2.5" ry="2.5" style="stroke:#2E75B6;stroke-width:0.5;" width="221.0376" x="331.5" y="7"/><ellipse cx="425.7327" cy="21" fill="#ADD1B2" rx="9" ry="9" style="stroke:#181818;stroke-width:1;"/><path d="M427.0452,24.7656 Q426.6702,24.9688 426.2483,25.0625 Q425.842,25.1563 425.3733,25.1563 Q423.7639,25.1563 422.9045,24.0938 Q422.0452,23.0156 422.0452,21 Q422.0452,18.9688 422.9045,17.9063 Q423.7639,16.8281 425.3733,16.8281 Q425.842,16.8281 426.2483,16.9375 Q426.6702,17.0313 427.0452,17.2188 L427.0452,18.9844 Q426.6233,18.6094 426.2327,18.4375 Q425.8577,18.2656 425.4514,18.2656 Q424.592,18.2656 424.1389,18.9531 Q423.7014,19.6406 423.7014,21 Q423.7014,22.3594 424.1389,23.0469 Q424.592,23.7344 425.4514,23.7344 Q425.8577,23.7344 426.2327,23.5625 Q426.6233,23.3906 427.0452,23 L427.0452,24.7656 Z " fill="#000000"/><text fill="#000000" font-family="Arial" font-size="11" lengthAdjust="spacing" textLength="25.0723" x="443.2327" y="24.8081">User</text><line style="stroke:#2E75B6;stroke-width:0.5;" x1="332.5" x2="551.5376" y1="35" y2="35"/><text fill="#000000" font-family="Arial" font-size="11" lengthAdjust="spacing" textLength="121.9023" x="337.5" y="49.2104">+id : INTEGER [PK, AI]</text><text fill="#000000" font-family="Arial" font-size="11" lengthAdjust="spacing" textLength="184.1802" x="337.5" y="62.0151">+username : VARCHAR [UNIQUE]</text><text fill="#000000" font-family="Arial" font-size="11" lengthAdjust="spacing" textLength="158.0605" x="337.5" y="74.8198">+password_hash : VARCHAR</text><text fill="#000000" font-family="Arial" font-size="11" lengthAdjust="spacing" textLength="127.5635" x="337.5" y="87.6245">+last_seen : DATETIME</text><text fill="#000000" font-family="Arial" font-size="11" lengthAdjust="spacing" textLength="149.4829" x="337.5" y="100.4292">+display_name : VARCHAR</text><text fill="#000000" font-family="Arial" font-size="11" lengthAdjust="spacing" textLength="136.5762" x="337.5" y="113.2339">+status_message : TEXT</text><text fill="#000000" font-family="Arial" font-size="11" lengthAdjust="spacing" textLength="139.8042" x="337.5" y="126.0386">+avatar_path : VARCHAR</text><line style="stroke:#2E75B6;stroke-width:1;" x1="332.5" x2="551.5376" y1="132.6328" y2="132.6328"/><text fill="#000000" font-family="Arial" font-size="11" lengthAdjust="spacing" textLength="209.0376" x="337.5" y="146.8433">+register(username, password) : void</text><text fill="#000000" font-family="Arial" font-size="11" lengthAdjust="spacing" textLength="208.7637" x="337.5" y="159.6479">+verifyPassword(password) : Boolean</text><text fill="#000000" font-family="Arial" font-size="11" lengthAdjust="spacing" textLength="154.6392" x="337.5" y="172.4526">+updateProfile(fields) : void</text><text fill="#000000" font-family="Arial" font-size="11" lengthAdjust="spacing" textLength="131.0386" x="337.5" y="185.2573">+deleteAccount() : void</text></g><!--class Session--><g class="entity" data-entity="Session" data-source-line="22" data-uid="ent0003" id="entity_Session"><rect fill="#F1F1F1" height="120.8281" rx="2.5" ry="2.5" style="stroke:#2E75B6;stroke-width:0.5;" width="207.8193" x="172" y="342.5"/><rect fill="#D6E4F0" height="28" rx="2.5" ry="2.5" style="stroke:#D6E4F0;stroke-width:0.5;" width="207.8193" x="172" y="342.5"/><rect fill="#D6E4F0" height="2.5" style="stroke:#D6E4F0;stroke-width:0.5;" width="207.8193" x="172" y="368"/><rect fill="none" height="120.8281" rx="2.5" ry="2.5" style="stroke:#2E75B6;stroke-width:0.5;" width="207.8193" x="172" y="342.5"/><ellipse cx="251.1748" cy="356.5" fill="#ADD1B2" rx="9" ry="9" style="stroke:#181818;stroke-width:1;"/><path d="M252.4873,360.2656 Q252.1123,360.4688 251.6904,360.5625 Q251.2842,360.6563 250.8154,360.6563 Q249.2061,360.6563 248.3467,359.5938 Q247.4873,358.5156 247.4873,356.5 Q247.4873,354.4688 248.3467,353.4063 Q249.2061,352.3281 250.8154,352.3281 Q251.2842,352.3281 251.6904,352.4375 Q252.1123,352.5313 252.4873,352.7188 L252.4873,354.4844 Q252.0654,354.1094 251.6748,353.9375 Q251.2998,353.7656 250.8936,353.7656 Q250.0342,353.7656 249.5811,354.4531 Q249.1436,355.1406 249.1436,356.5 Q249.1436,357.8594 249.5811,358.5469 Q250.0342,359.2344 250.8936,359.2344 Q251.2998,359.2344 251.6748,359.0625 Q252.0654,358.8906 252.4873,358.5 L252.4873,360.2656 Z " fill="#000000"/><text fill="#000000" font-family="Arial" font-size="11" lengthAdjust="spacing" textLength="41.9697" x="268.6748" y="360.3081">Session</text><line style="stroke:#2E75B6;stroke-width:0.5;" x1="173" x2="378.8193" y1="370.5" y2="370.5"/><text fill="#000000" font-family="Arial" font-size="11" lengthAdjust="spacing" textLength="130.6948" x="178" y="384.7104">+token : CHAR(64) [PK]</text><text fill="#000000" font-family="Arial" font-size="11" lengthAdjust="spacing" textLength="195.8193" x="178" y="397.5151">+username : VARCHAR [FK → User]</text><text fill="#000000" font-family="Arial" font-size="11" lengthAdjust="spacing" textLength="134.6802" x="178" y="410.3198">+created_at : DATETIME</text><text fill="#000000" font-family="Arial" font-size="11" lengthAdjust="spacing" textLength="132.8755" x="178" y="423.1245">+expires_at : DATETIME</text><line style="stroke:#2E75B6;stroke-width:1;" x1="173" x2="378.8193" y1="429.7188" y2="429.7188"/><text fill="#000000" font-family="Arial" font-size="11" lengthAdjust="spacing" textLength="109.189" x="178" y="443.9292">+isValid() : Boolean</text><text fill="#000000" font-family="Arial" font-size="11" lengthAdjust="spacing" textLength="89.4448" x="178" y="456.7339">+revoke() : void</text></g><!--class Message--><g class="entity" data-entity="Message" data-source-line="32" data-uid="ent0004" id="entity_Message"><rect fill="#F1F1F1" height="274.4844" rx="2.5" ry="2.5" style="stroke:#2E75B6;stroke-width:0.5;" width="270.7417" x="699.5" y="266"/><rect fill="#D6E4F0" height="28" rx="2.5" ry="2.5" style="stroke:#D6E4F0;stroke-width:0.5;" width="270.7417" x="699.5" y="266"/><rect fill="#D6E4F0" height="2.5" style="stroke:#D6E4F0;stroke-width:0.5;" width="270.7417" x="699.5" y="291.5"/><rect fill="none" height="274.4844" rx="2.5" ry="2.5" style="stroke:#2E75B6;stroke-width:0.5;" width="270.7417" x="699.5" y="266"/><ellipse cx="807.0154" cy="280" fill="#ADD1B2" rx="9" ry="9" style="stroke:#181818;stroke-width:1;"/><path d="M808.3279,283.7656 Q807.9529,283.9688 807.531,284.0625 Q807.1248,284.1563 806.656,284.1563 Q805.0466,284.1563 804.1873,283.0938 Q803.3279,282.0156 803.3279,280 Q803.3279,277.9688 804.1873,276.9063 Q805.0466,275.8281 806.656,275.8281 Q807.1248,275.8281 807.531,275.9375 Q807.9529,276.0313 808.3279,276.2188 L808.3279,277.9844 Q807.906,277.6094 807.5154,277.4375 Q807.1404,277.2656 806.7341,277.2656 Q805.8748,277.2656 805.4216,277.9531 Q804.9841,278.6406 804.9841,280 Q804.9841,281.3594 805.4216,282.0469 Q805.8748,282.7344 806.7341,282.7344 Q807.1404,282.7344 807.5154,282.5625 Q807.906,282.3906 808.3279,282 L808.3279,283.7656 Z " fill="#000000"/><text fill="#000000" font-family="Arial" font-size="11" lengthAdjust="spacing" textLength="48.2109" x="824.5154" y="283.8081">Message</text><line style="stroke:#2E75B6;stroke-width:0.5;" x1="700.5" x2="969.2417" y1="294" y2="294"/><text fill="#000000" font-family="Arial" font-size="11" lengthAdjust="spacing" textLength="121.9023" x="705.5" y="308.2104">+id : INTEGER [PK, AI]</text><text fill="#000000" font-family="Arial" font-size="11" lengthAdjust="spacing" textLength="178.374" x="705.5" y="321.0151">+sender : VARCHAR [FK → User]</text><text fill="#000000" font-family="Arial" font-size="11" lengthAdjust="spacing" textLength="221.1226" x="705.5" y="333.8198">+receiver : VARCHAR [FK → User, NULL]</text><text fill="#000000" font-family="Arial" font-size="11" lengthAdjust="spacing" textLength="226.9932" x="705.5" y="346.6245">+group_id : INTEGER [FK → Group, NULL]</text><text fill="#000000" font-family="Arial" font-size="11" lengthAdjust="spacing" textLength="97.2759" x="705.5" y="359.4292">+message : TEXT</text><text fill="#000000" font-family="Arial" font-size="11" lengthAdjust="spacing" textLength="120.9893" x="705.5" y="372.2339">+file_path : VARCHAR</text><text fill="#000000" font-family="Arial" font-size="11" lengthAdjust="spacing" textLength="127.1768" x="705.5" y="385.0386">+file_name : VARCHAR</text><text fill="#000000" font-family="Arial" font-size="11" lengthAdjust="spacing" textLength="258.7417" x="705.5" y="397.8433">+message_type : ENUM [text|image|audio|file]</text><text fill="#000000" font-family="Arial" font-size="11" lengthAdjust="spacing" textLength="135.3193" x="705.5" y="410.6479">+timestamp : DATETIME</text><text fill="#000000" font-family="Arial" font-size="11" lengthAdjust="spacing" textLength="124.1958" x="705.5" y="423.4526">+seen : INTEGER [0|1]</text><text fill="#000000" font-family="Arial" font-size="11" lengthAdjust="spacing" textLength="127.4077" x="705.5" y="436.2573">+edited_at : DATETIME</text><text fill="#000000" font-family="Arial" font-size="11" lengthAdjust="spacing" textLength="134.1753" x="705.5" y="449.062">+deleted_at : DATETIME</text><text fill="#000000" font-family="Arial" font-size="11" lengthAdjust="spacing" textLength="134.3579" x="705.5" y="461.8667">+deleted_by : VARCHAR</text><text fill="#000000" font-family="Arial" font-size="11" lengthAdjust="spacing" textLength="143.8916" x="705.5" y="474.6714">+original_message : TEXT</text><line style="stroke:#2E75B6;stroke-width:1;" x1="700.5" x2="969.2417" y1="481.2656" y2="481.2656"/><text fill="#000000" font-family="Arial" font-size="11" lengthAdjust="spacing" textLength="78.23" x="705.5" y="495.4761">+send() : void</text><text fill="#000000" font-family="Arial" font-size="11" lengthAdjust="spacing" textLength="119.9419" x="705.5" y="508.2808">+edit(newText) : void</text><text fill="#000000" font-family="Arial" font-size="11" lengthAdjust="spacing" textLength="122.0581" x="705.5" y="521.0854">+softDelete(by) : void</text><text fill="#000000" font-family="Arial" font-size="11" lengthAdjust="spacing" textLength="120.8711" x="705.5" y="533.8901">+markAsSeen() : void</text></g><!--class Group--><g class="entity" data-entity="Group" data-source-line="54" data-uid="ent0005" id="entity_Group"><rect fill="#F1F1F1" height="159.2422" rx="2.5" ry="2.5" style="stroke:#2E75B6;stroke-width:0.5;" width="192.2754" x="604" y="20"/><rect fill="#D6E4F0" height="28" rx="2.5" ry="2.5" style="stroke:#D6E4F0;stroke-width:0.5;" width="192.2754" x="604" y="20"/><rect fill="#D6E4F0" height="2.5" style="stroke:#D6E4F0;stroke-width:0.5;" width="192.2754" x="604" y="45.5"/><rect fill="none" height="159.2422" rx="2.5" ry="2.5" style="stroke:#2E75B6;stroke-width:0.5;" width="192.2754" x="604" y="20"/><ellipse cx="679.5225" cy="34" fill="#ADD1B2" rx="9" ry="9" style="stroke:#181818;stroke-width:1;"/><path d="M680.835,37.7656 Q680.46,37.9688 680.0381,38.0625 Q679.6318,38.1563 679.1631,38.1563 Q677.5537,38.1563 676.6943,37.0938 Q675.835,36.0156 675.835,34 Q675.835,31.9688 676.6943,30.9063 Q677.5537,29.8281 679.1631,29.8281 Q679.6318,29.8281 680.0381,29.9375 Q680.46,30.0313 680.835,30.2188 L680.835,31.9844 Q680.4131,31.6094 680.0225,31.4375 Q679.6475,31.2656 679.2412,31.2656 Q678.3818,31.2656 677.9287,31.9531 Q677.4912,32.6406 677.4912,34 Q677.4912,35.3594 677.9287,36.0469 Q678.3818,36.7344 679.2412,36.7344 Q679.6475,36.7344 680.0225,36.5625 Q680.4131,36.3906 680.835,36 L680.835,37.7656 Z " fill="#000000"/><text fill="#000000" font-family="Arial" font-size="11" lengthAdjust="spacing" textLength="33.7305" x="697.0225" y="37.8081">Group</text><line style="stroke:#2E75B6;stroke-width:0.5;" x1="605" x2="795.2754" y1="48" y2="48"/><text fill="#000000" font-family="Arial" font-size="11" lengthAdjust="spacing" textLength="121.9023" x="610" y="62.2104">+id : INTEGER [PK, AI]</text><text fill="#000000" font-family="Arial" font-size="11" lengthAdjust="spacing" textLength="104.9243" x="610" y="75.0151">+name : VARCHAR</text><text fill="#000000" font-family="Arial" font-size="11" lengthAdjust="spacing" textLength="180.2754" x="610" y="87.8198">+creator : VARCHAR [FK → User]</text><text fill="#000000" font-family="Arial" font-size="11" lengthAdjust="spacing" textLength="145.3418" x="610" y="100.6245">+is_public : INTEGER [0|1]</text><text fill="#000000" font-family="Arial" font-size="11" lengthAdjust="spacing" textLength="129.3198" x="610" y="113.4292">+invite_code : CHAR(8)</text><line style="stroke:#2E75B6;stroke-width:1;" x1="605" x2="795.2754" y1="120.0234" y2="120.0234"/><text fill="#000000" font-family="Arial" font-size="11" lengthAdjust="spacing" textLength="175.2212" x="610" y="134.2339">+create(name, creator) : Group</text><text fill="#000000" font-family="Arial" font-size="11" lengthAdjust="spacing" textLength="125.458" x="610" y="147.0386">+rename(name) : void</text><text fill="#000000" font-family="Arial" font-size="11" lengthAdjust="spacing" textLength="86.4316" x="610" y="159.8433">+delete() : void</text><text fill="#000000" font-family="Arial" font-size="11" lengthAdjust="spacing" textLength="171.9233" x="610" y="172.6479">+regenerateInviteCode() : void</text></g><!--class GroupMember--><g class="entity" data-entity="GroupMember" data-source-line="67" data-uid="ent0006" id="entity_GroupMember"><rect fill="#F1F1F1" height="120.8281" rx="2.5" ry="2.5" style="stroke:#2E75B6;stroke-width:0.5;" width="249.3433" x="415.5" y="342.5"/><rect fill="#D6E4F0" height="28" rx="2.5" ry="2.5" style="stroke:#D6E4F0;stroke-width:0.5;" width="249.3433" x="415.5" y="342.5"/><rect fill="#D6E4F0" height="2.5" style="stroke:#D6E4F0;stroke-width:0.5;" width="249.3433" x="415.5" y="368"/><rect fill="none" height="120.8281" rx="2.5" ry="2.5" style="stroke:#2E75B6;stroke-width:0.5;" width="249.3433" x="415.5" y="342.5"/><ellipse cx="496.9333" cy="356.5" fill="#ADD1B2" rx="9" ry="9" style="stroke:#181818;stroke-width:1;"/><path d="M498.2458,360.2656 Q497.8708,360.4688 497.449,360.5625 Q497.0427,360.6563 496.574,360.6563 Q494.9646,360.6563 494.1052,359.5938 Q493.2458,358.5156 493.2458,356.5 Q493.2458,354.4688 494.1052,353.4063 Q494.9646,352.3281 496.574,352.3281 Q497.0427,352.3281 497.449,352.4375 Q497.8708,352.5313 498.2458,352.7188 L498.2458,354.4844 Q497.824,354.1094 497.4333,353.9375 Q497.0583,353.7656 496.6521,353.7656 Q495.7927,353.7656 495.3396,354.4531 Q494.9021,355.1406 494.9021,356.5 Q494.9021,357.8594 495.3396,358.5469 Q495.7927,359.2344 496.6521,359.2344 Q497.0583,359.2344 497.4333,359.0625 Q497.824,358.8906 498.2458,358.5 L498.2458,360.2656 Z " fill="#000000"/><text fill="#000000" font-family="Arial" font-size="11" lengthAdjust="spacing" textLength="78.9766" x="514.4333" y="360.3081">GroupMember</text><line style="stroke:#2E75B6;stroke-width:0.5;" x1="416.5" x2="663.8433" y1="370.5" y2="370.5"/><text fill="#000000" font-family="Arial" font-size="11" lengthAdjust="spacing" textLength="191.4634" x="421.5" y="384.7104">+group_id : INTEGER [FK → Group]</text><text fill="#000000" font-family="Arial" font-size="11" lengthAdjust="spacing" textLength="195.8193" x="421.5" y="397.5151">+username : VARCHAR [FK → User]</text><text fill="#000000" font-family="Arial" font-size="11" lengthAdjust="spacing" textLength="237.3433" x="421.5" y="410.3198">+role : ENUM [creator|moderator|member]</text><line style="stroke:#2E75B6;stroke-width:1;" x1="416.5" x2="663.8433" y1="416.9141" y2="416.9141"/><text fill="#000000" font-family="Arial" font-size="11" lengthAdjust="spacing" textLength="205.1489" x="421.5" y="431.1245">+add(groupId, username, role) : void</text><text fill="#000000" font-family="Arial" font-size="11" lengthAdjust="spacing" textLength="198.3867" x="421.5" y="443.9292">+remove(groupId, username) : void</text><text fill="#000000" font-family="Arial" font-size="11" lengthAdjust="spacing" textLength="168.7866" x="421.5" y="456.7339">+promoteToModerator() : void</text></g><!--class Reaction--><g class="entity" data-entity="Reaction" data-source-line="77" data-uid="ent0007" id="entity_Reaction"><rect fill="#F1F1F1" height="108.0234" rx="2.5" ry="2.5" style="stroke:#2E75B6;stroke-width:0.5;" width="257.7705" x="7" y="614"/><rect fill="#D6E4F0" height="28" rx="2.5" ry="2.5" style="stroke:#D6E4F0;stroke-width:0.5;" width="257.7705" x="7" y="614"/><rect fill="#D6E4F0" height="2.5" style="stroke:#D6E4F0;stroke-width:0.5;" width="257.7705" x="7" y="639.5"/><rect fill="none" height="108.0234" rx="2.5" ry="2.5" style="stroke:#2E75B6;stroke-width:0.5;" width="257.7705" x="7" y="614"/><ellipse cx="108.0002" cy="628" fill="#ADD1B2" rx="9" ry="9" style="stroke:#181818;stroke-width:1;"/><path d="M109.3127,631.7656 Q108.9377,631.9688 108.5159,632.0625 Q108.1096,632.1563 107.6409,632.1563 Q106.0315,632.1563 105.1721,631.0938 Q104.3127,630.0156 104.3127,628 Q104.3127,625.9688 105.1721,624.9063 Q106.0315,623.8281 107.6409,623.8281 Q108.1096,623.8281 108.5159,623.9375 Q108.9377,624.0313 109.3127,624.2188 L109.3127,625.9844 Q108.8909,625.6094 108.5002,625.4375 Q108.1252,625.2656 107.719,625.2656 Q106.8596,625.2656 106.4065,625.9531 Q105.969,626.6406 105.969,628 Q105.969,629.3594 106.4065,630.0469 Q106.8596,630.7344 107.719,630.7344 Q108.1252,630.7344 108.5002,630.5625 Q108.8909,630.3906 109.3127,630 L109.3127,631.7656 Z " fill="#000000"/><text fill="#000000" font-family="Arial" font-size="11" lengthAdjust="spacing" textLength="48.27" x="125.5002" y="631.8081">Reaction</text><line style="stroke:#2E75B6;stroke-width:0.5;" x1="8" x2="263.7705" y1="642" y2="642"/><text fill="#000000" font-family="Arial" font-size="11" lengthAdjust="spacing" textLength="121.9023" x="13" y="656.2104">+id : INTEGER [PK, AI]</text><text fill="#000000" font-family="Arial" font-size="11" lengthAdjust="spacing" textLength="223.1904" x="13" y="669.0151">+message_id : INTEGER [FK → Message]</text><text fill="#000000" font-family="Arial" font-size="11" lengthAdjust="spacing" textLength="195.8193" x="13" y="681.8198">+username : VARCHAR [FK → User]</text><text fill="#000000" font-family="Arial" font-size="11" lengthAdjust="spacing" textLength="104.0542" x="13" y="694.6245">+emoji : VARCHAR</text><line style="stroke:#2E75B6;stroke-width:1;" x1="8" x2="263.7705" y1="701.2188" y2="701.2188"/><text fill="#000000" font-family="Arial" font-size="11" lengthAdjust="spacing" textLength="245.7705" x="13" y="715.4292">+toggle(messageId, username, emoji) : void</text></g><!--class RateLimit--><g class="entity" data-entity="RateLimit" data-source-line="86" data-uid="ent0008" id="entity_RateLimit"><rect fill="#F1F1F1" height="108.0234" rx="2.5" ry="2.5" style="stroke:#2E75B6;stroke-width:0.5;" width="216.8105" x="831.5" y="45.5"/><rect fill="#D6E4F0" height="28" rx="2.5" ry="2.5" style="stroke:#D6E4F0;stroke-width:0.5;" width="216.8105" x="831.5" y="45.5"/><rect fill="#D6E4F0" height="2.5" style="stroke:#D6E4F0;stroke-width:0.5;" width="216.8105" x="831.5" y="71"/><rect fill="none" height="108.0234" rx="2.5" ry="2.5" style="stroke:#2E75B6;stroke-width:0.5;" width="216.8105" x="831.5" y="45.5"/><ellipse cx="909.7886" cy="59.5" fill="#ADD1B2" rx="9" ry="9" style="stroke:#181818;stroke-width:1;"/><path d="M911.1011,63.2656 Q910.7261,63.4688 910.3042,63.5625 Q909.8979,63.6563 909.4292,63.6563 Q907.8198,63.6563 906.9604,62.5938 Q906.1011,61.5156 906.1011,59.5 Q906.1011,57.4688 906.9604,56.4063 Q907.8198,55.3281 909.4292,55.3281 Q909.8979,55.3281 910.3042,55.4375 Q910.7261,55.5313 911.1011,55.7188 L911.1011,57.4844 Q910.6792,57.1094 910.2886,56.9375 Q909.9136,56.7656 909.5073,56.7656 Q908.6479,56.7656 908.1948,57.4531 Q907.7573,58.1406 907.7573,59.5 Q907.7573,60.8594 908.1948,61.5469 Q908.6479,62.2344 909.5073,62.2344 Q909.9136,62.2344 910.2886,62.0625 Q910.6792,61.8906 911.1011,61.5 L911.1011,63.2656 Z " fill="#000000"/><text fill="#000000" font-family="Arial" font-size="11" lengthAdjust="spacing" textLength="52.7334" x="927.2886" y="63.3081">RateLimit</text><line style="stroke:#2E75B6;stroke-width:0.5;" x1="832.5" x2="1047.3105" y1="73.5" y2="73.5"/><text fill="#000000" font-family="Arial" font-size="11" lengthAdjust="spacing" textLength="119.3027" x="837.5" y="87.7104">+key : VARCHAR [PK]</text><text fill="#000000" font-family="Arial" font-size="11" lengthAdjust="spacing" textLength="99.2095" x="837.5" y="100.5151">+count : INTEGER</text><text fill="#000000" font-family="Arial" font-size="11" lengthAdjust="spacing" textLength="120.6401" x="837.5" y="113.3198">+reset_at : DATETIME</text><line style="stroke:#2E75B6;stroke-width:1;" x1="832.5" x2="1047.3105" y1="119.9141" y2="119.9141"/><text fill="#000000" font-family="Arial" font-size="11" lengthAdjust="spacing" textLength="204.8105" x="837.5" y="134.1245">+check(key, limit, window) : Boolean</text><text fill="#000000" font-family="Arial" font-size="11" lengthAdjust="spacing" textLength="127.5581" x="837.5" y="146.9292">+increment(key) : void</text></g><!--link User to Session--><g class="link" data-entity-1="User" data-entity-2="Session" data-source-line="95" data-uid="lnk9" id="link_User_Session"><path codeLine="95" d="M391.52,192.19 C364.71,240.87 338.3275,288.7978 314.7475,331.6278" fill="none" id="User-to-Session" style="stroke:#181818;stroke-width:1;"/><polygon fill="none" points="308.96,342.14,315.3578,338.8131,314.7475,331.6278,308.3497,334.9548,308.96,342.14" style="stroke:#181818;stroke-width:1;"/><text fill="#000000" font-family="Arial" font-size="11" lengthAdjust="spacing" textLength="45.6919" x="375" y="233.2104">possède</text><text fill="#000000" font-family="Arial" font-size="11" lengthAdjust="spacing" textLength="6.9985" x="381.4622" y="209.9929">1</text><text fill="#000000" font-family="Arial" font-size="11" lengthAdjust="spacing" textLength="19.4917" x="293.0089" y="331.8466">0..*</text></g><!--link User to Message--><g class="link" data-entity-1="User" data-entity-2="Message" data-source-line="96" data-uid="lnk10" id="link_User_Message"><path codeLine="96" d="M533.8,192.02 C553,208.12 573.86,223.66 595,236 C630.32,256.62 646.7,245.35 682,266 C687.83,269.41 683.6454,266.4036 689.4054,270.2436" fill="none" id="User-to-Message" style="stroke:#181818;stroke-width:1;"/><polygon fill="none" points="699.39,276.9,696.6165,270.2436,689.4054,270.2436,692.1789,276.9,699.39,276.9" style="stroke:#181818;stroke-width:1;"/><text fill="#000000" font-family="Arial" font-size="11" lengthAdjust="spacing" textLength="36.8027" x="596" y="233.2104">envoie</text><text fill="#000000" font-family="Arial" font-size="11" lengthAdjust="spacing" textLength="6.9985" x="534.9145" y="210.1192">1</text><text fill="#000000" font-family="Arial" font-size="11" lengthAdjust="spacing" textLength="19.4917" x="672.0225" y="267.4827">0..*</text></g><!--link User to GroupMember--><g class="link" data-entity-1="User" data-entity-2="GroupMember" data-source-line="97" data-uid="lnk11" id="link_User_GroupMember"><path codeLine="97" d="M469.22,192.12 C473.73,206.82 478.43,221.85 483,236 C494.42,271.38 503.9481,299.4094 514.9381,330.9194" fill="none" id="User-to-GroupMember" style="stroke:#181818;stroke-width:1;"/><polygon fill="none" points="518.89,342.25,520.6909,335.2674,514.9381,330.9194,513.1372,337.902,518.89,342.25" style="stroke:#181818;stroke-width:1;"/><text fill="#000000" font-family="Arial" font-size="11" lengthAdjust="spacing" textLength="67.6274" x="484" y="233.2104">appartient à</text><text fill="#000000" font-family="Arial" font-size="11" lengthAdjust="spacing" textLength="6.9985" x="465.1111" y="209.9175">1</text><text fill="#000000" font-family="Arial" font-size="11" lengthAdjust="spacing" textLength="19.4917" x="495.9776" y="331.9707">0..*</text></g><!--link User to Reaction--><g class="link" data-entity-1="User" data-entity-2="Reaction" data-source-line="98" data-uid="lnk12" id="link_User_Reaction"><path codeLine="98" d="M331.18,126.39 C258.45,149.76 168.8,192.18 124,266 C58.05,374.66 88.7031,520.72 113.7631,602.22" fill="none" id="User-to-Reaction" style="stroke:#181818;stroke-width:1;"/><polygon fill="none" points="117.29,613.69,119.3499,606.7794,113.7631,602.22,111.7032,609.1306,117.29,613.69" style="stroke:#181818;stroke-width:1;"/><text fill="#000000" font-family="Arial" font-size="11" lengthAdjust="spacing" textLength="28.5635" x="125" y="407.2104">émet</text><text fill="#000000" font-family="Arial" font-size="11" lengthAdjust="spacing" textLength="6.9985" x="316.5024" y="126.2363">1</text><text fill="#000000" font-family="Arial" font-size="11" lengthAdjust="spacing" textLength="19.4917" x="94.3737" y="603.4743">0..*</text></g><!--link Group to GroupMember--><g class="link" data-entity-1="Group" data-entity-2="GroupMember" data-source-line="99" data-uid="lnk13" id="link_Group_GroupMember"><path codeLine="99" d="M667.93,179.09 C659.64,197.97 650.39,217.89 641,236 C622.2,272.23 605.0177,301.154 585.3577,332.284" fill="none" id="Group-to-GroupMember" style="stroke:#181818;stroke-width:1;"/><polygon fill="none" points="578.95,342.43,585.5358,339.4929,585.3577,332.284,578.7718,335.2211,578.95,342.43" style="stroke:#181818;stroke-width:1;"/><text fill="#000000" font-family="Arial" font-size="11" lengthAdjust="spacing" textLength="45.1709" x="647" y="233.2104">contient</text><text fill="#000000" font-family="Arial" font-size="11" lengthAdjust="spacing" textLength="6.9985" x="658.6219" y="197.4851">1</text><text fill="#000000" font-family="Arial" font-size="11" lengthAdjust="spacing" textLength="19.4917" x="563.9173" y="331.7607">0..*</text></g><!--link Group to Message--><g class="link" data-entity-1="Group" data-entity-2="Message" data-source-line="100" data-uid="lnk14" id="link_Group_Message"><path codeLine="100" d="M735.29,179.32 C747.17,205.84 755.8765,225.2876 769.1465,254.9276" fill="none" id="Group-to-Message" style="stroke:#181818;stroke-width:1;"/><polygon fill="none" points="774.05,265.88,775.2491,258.7693,769.1465,254.9276,767.9475,262.0383,774.05,265.88" style="stroke:#181818;stroke-width:1;"/><text fill="#000000" font-family="Arial" font-size="11" lengthAdjust="spacing" textLength="31.437" x="760" y="233.2104">reçoit</text><text fill="#000000" font-family="Arial" font-size="11" lengthAdjust="spacing" textLength="6.9985" x="732.3001" y="197.4679">1</text><text fill="#000000" font-family="Arial" font-size="11" lengthAdjust="spacing" textLength="19.4917" x="750.7798" y="255.3788">0..*</text></g><!--link Message to Reaction--><g class="link" data-entity-1="Message" data-entity-2="Reaction" data-source-line="101" data-uid="lnk15" id="link_Message_Reaction"><path codeLine="101" d="M699.36,530.17 C693.63,533.68 687.84,536.98 682,540 C549.54,608.55 391.9135,639.0215 277.1535,653.6615" fill="none" id="Message-to-Reaction" style="stroke:#181818;stroke-width:1;"/><polygon fill="none" points="265.25,655.18,271.7079,658.3886,277.1535,653.6615,270.6956,650.4529,265.25,655.18" style="stroke:#181818;stroke-width:1;"/><text fill="#000000" font-family="Arial" font-size="11" lengthAdjust="spacing" textLength="31.437" x="614" y="581.2104">reçoit</text><text fill="#000000" font-family="Arial" font-size="11" lengthAdjust="spacing" textLength="6.9985" x="684.5186" y="536.1532">1</text><text fill="#000000" font-family="Arial" font-size="11" lengthAdjust="spacing" textLength="19.4917" x="272.8576" y="652.3826">0..*</text></g><!--SRC=[ZLR1Rjf04Btp5IjwSLeIGTMc5JT8d0Gbe3I1g58KMOjt85jihxMxG6ZfjH_GB-YjxNVm9_sIpgwDCM18RcZdxSoRjs_6g16FOYffIFo0AjNGMlB-M4FB5z4j_mgaMb8PXC60ZWDz9YBTeI6GXkGqA8xRkxLQBcZpDuLa84z482HvzTRzyBvvl0cv08gG9lL7God64Kl1fyVkkxDgYPGiYFGKIFAjHCWRpaYTj3fTzzoz8VVNbnNIQ3sOm1WXaQ5P9tUDcvEB1ePxdTQddcl3CQQP8XtlaQh75SQ4i8Bs5424nwUDhjjjjLrpphYA0phprhEQYD9KZvKNWb9qQ69TztFN1EY4QYgzcEhr6eU79YfXo9K6wIovLiYIrW729u8p0vk0v8FPTHfnyf2c407GoFORCwhXMee13y0PS0YOocTX4826Xk-Zgjh98jypJM-HFHTH8giM8zk_uUiSlpimqkwKzUoI_FlnqpwAnVWIa0hpgDvG49vYBa5j1H8vkBgZ0MVEHcCI9aYcY74xrNk_4HH4wAXzV2Num2SxCHNIwLrTMQJnPEojbqgHvoQKWswRmJpCjXMIusrFfVSzFOjDnEtqskHUmvEUyn3FvtJCk9YRoxQSvdX1qp3Ua3prSSQsEgzPF31U-4I9JVO4-hDrdaBo8OzeiEt-v5MD_4xUYAQo4y6qYxtapvKOw5DRnEdFye6Gob53tM8ZHIQmkZzZWMrrhKN5NbTmvSNZVi3z8lbuD47zF5ymM4x9nuEivsG0d6IaqrA6kkMQECx4B61xHjVKmXq14KXCrx8bJx3YJXdQ4FQNY_4vgxvucYLEOcR0j9bvY3HayilMVCXwfumvjdQBLSXgiPaiwts5OWBRo3mcbY8K6hgYlQnMrFaDK5zdYskd1vRpLAX8kabUh0cI_y8BDheMmo5ktxJMkWBsJX5_VDih7dATD322MRvokdRjrbuHJnHKe7UiKlyH_963gIeaCAahPCeZ9gORgvL7-9uXuFS0eMlKx0UsN2jZFa7ArQEZr-Ni0r4diL1gyOT18QoTxG68C5ynA6_NEg4n_WFG78cGnQz2VFR8TRBu6u8k9ME_Dol-Xx4vYx4hcX8MlmNNfUN9xj8fyZy0]--></g></svg>