<svg xmlns="http://www.w3.org/2000/svg" xmlns:xlink="http://www.w3.org/1999/xlink" contentStyleType="text/css" data-diagram-type="DESCRIPTION" height="957px" preserveAspectRatio="none" style="width:1220px;height:957px;background:#FFFFFF;" version="1.1" viewBox="0 0 1220 957" width="1220px" zoomAndPan="magnify"><defs/><g><!--cluster Navigateur Web ? Client--><g class="cluster" data-entity="Navigateur Web . Client" data-source-line="8" data-uid="ent0002" id="cluster_Navigateur Web . Client"><path d="M8.5,6 L164.4614,6 A3.75,3.75 0 0 1 166.9614,8.5 L173.9614,24.8047 L1051.5,24.8047 A2.5,2.5 0 0 1 1054,27.3047 L1054,266.5 A2.5,2.5 0 0 1 1051.5,269 L8.5,269 A2.5,2.5 0 0 1 6,266.5 L6,8.5 A2.5,2.5 0 0 1 8.5,6" fill="none" style="stroke:#1F3864;stroke-width:1.5;"/><line style="stroke:#1F3864;stroke-width:1.5;" x1="6" x2="173.9614" y1="24.8047" y2="24.8047"/><text fill="#000000" font-family="Arial" font-size="11" font-weight="bold" lengthAdjust="spacing" textLength="154.9614" x="10" y="18.2104">Navigateur Web — Client</text></g><!--cluster app.js ? Moteur SPA--><g class="cluster" data-entity="app.js . Moteur SPA" data-source-line="12" data-uid="ent0005" id="cluster_app.js . Moteur SPA"><path d="M177.5,45 L307.6318,45 A3.75,3.75 0 0 1 310.1318,47.5 L317.1318,63.8047 L1027.5,63.8047 A2.5,2.5 0 0 1 1030,66.3047 L1030,242.5 A2.5,2.5 0 0 1 1027.5,245 L177.5,245 A2.5,2.5 0 0 1 175,242.5 L175,47.5 A2.5,2.5 0 0 1 177.5,45" fill="none" style="stroke:#1F3864;stroke-width:1.5;"/><line style="stroke:#1F3864;stroke-width:1.5;" x1="175" x2="317.1318" y1="63.8047" y2="63.8047"/><text fill="#000000" font-family="Arial" font-size="11" font-weight="bold" lengthAdjust="spacing" textLength="129.1318" x="179" y="57.2104">app.js — Moteur SPA</text></g><!--cluster Serveur Node.js--><g class="cluster" data-entity="Serveur Node.js" data-source-line="21" data-uid="ent0011" id="cluster_Serveur Node.js"><path d="M176.5,315 L276.6182,315 A3.75,3.75 0 0 1 279.1182,317.5 L286.1182,333.8047 L878.5,333.8047 A2.5,2.5 0 0 1 881,336.3047 L881,678.5 A2.5,2.5 0 0 1 878.5,681 L176.5,681 A2.5,2.5 0 0 1 174,678.5 L174,317.5 A2.5,2.5 0 0 1 176.5,315" fill="none" style="stroke:#1F3864;stroke-width:1.5;"/><line style="stroke:#1F3864;stroke-width:1.5;" x1="174" x2="286.1182" y1="333.8047" y2="333.8047"/><text fill="#000000" font-family="Arial" font-size="11" font-weight="bold" lengthAdjust="spacing" textLength="99.1182" x="178" y="327.2104">Serveur Node.js</text></g><!--cluster server.js--><g class="cluster" data-entity="server.js" data-source-line="22" data-uid="ent0012" id="cluster_server.js"><path d="M200.5,354 L255.4849,354 A3.75,3.75 0 0 1 257.9849,356.5 L264.9849,372.8047 L804.5,372.8047 A2.5,2.5 0 0 1 807,375.3047 L807,562.5 A2.5,2.5 0 0 1 804.5,565 L200.5,565 A2.5,2.5 0 0 1 198,562.5 L198,356.5 A2.5,2.5 0 0 1 200.5,354" fill="none" style="stroke:#1F3864;stroke-width:1.5;"/><line style="stroke:#1F3864;stroke-width:1.5;" x1="198" x2="264.9849" y1="372.8047" y2="372.8047"/><text fill="#000000" font-family="Arial" font-size="11" font-weight="bold" lengthAdjust="spacing" textLength="53.9849" x="202" y="366.2104">server.js</text></g><!--cluster DB--><g class="cluster" data-entity="DB" data-source-line="32" data-uid="ent0019" id="cluster_DB"><path d="M784,732 C784,722 993.5,722 993.5,722 C993.5,722 1203,722 1203,732 L1203,930 C1203,940 993.5,940 993.5,940 C993.5,940 784,940 784,930 L784,732" fill="none" style="stroke:#1F3864;stroke-width:1;"/><path d="M784,732 C784,742 993.5,742 993.5,742 C993.5,742 1203,742 1203,732" fill="none" style="stroke:#1F3864;stroke-width:1;"/><text fill="#000000" font-family="Arial" font-size="11" font-weight="bold" lengthAdjust="spacing" textLength="46.9595" x="970.0203" y="754.2104">chat.db</text><text fill="#000000" font-family="Arial" font-size="11" font-weight="bold" lengthAdjust="spacing" textLength="143.5747" x="921.7126" y="767.0151">(SQLite — WAL, FK ON)</text></g><!--entity HTML--><g class="entity" data-entity="HTML" data-source-line="9" data-uid="ent0003" id="entity_HTML"><rect fill="#F1F1F1" height="45.6094" rx="2.5" ry="2.5" style="stroke:#2E75B6;stroke-width:0.5;" width="106.1416" x="36" y="183"/><text fill="#000000" font-family="Arial" font-size="11" lengthAdjust="spacing" textLength="58.8403" x="46" y="203.2104">index.html</text><text fill="#000000" font-family="Arial" font-size="11" lengthAdjust="spacing" textLength="86.1416" x="46" y="216.0151">(Squelette SPA)</text></g><!--entity CSS--><g class="entity" data-entity="CSS" data-source-line="10" data-uid="ent0004" id="entity_CSS"><rect fill="#F1F1F1" height="45.6094" rx="2.5" ry="2.5" style="stroke:#2E75B6;stroke-width:0.5;" width="133.9102" x="22" y="76"/><text fill="#000000" font-family="Arial" font-size="11" lengthAdjust="spacing" textLength="47.3838" x="32" y="96.2104">style.css</text><text fill="#000000" font-family="Arial" font-size="11" lengthAdjust="spacing" textLength="113.9102" x="32" y="109.0151">(Grid, variables CSS)</text></g><!--entity STATE--><g class="entity" data-entity="STATE" data-source-line="13" data-uid="ent0006" id="entity_STATE"><rect fill="#F1F1F1" height="45.6094" rx="2.5" ry="2.5" style="stroke:#2E75B6;stroke-width:0.5;" width="229.5801" x="784" y="76"/><text fill="#000000" font-family="Arial" font-size="11" lengthAdjust="spacing" textLength="105.7891" x="794" y="96.2104">Gestionnaire d'état</text><text fill="#000000" font-family="Arial" font-size="11" lengthAdjust="spacing" textLength="209.5801" x="794" y="109.0151">(state : 38 champs, els : 70 refs DOM)</text></g><!--entity WSC--><g class="entity" data-entity="WSC" data-source-line="14" data-uid="ent0007" id="entity_WSC"><rect fill="#F1F1F1" height="45.6094" rx="2.5" ry="2.5" style="stroke:#2E75B6;stroke-width:0.5;" width="191.9072" x="402" y="183"/><text fill="#000000" font-family="Arial" font-size="11" lengthAdjust="spacing" textLength="106.5034" x="412" y="203.2104">Couche WebSocket</text><text fill="#000000" font-family="Arial" font-size="11" lengthAdjust="spacing" textLength="171.9072" x="412" y="216.0151">(Socket.IO client, emitWithAck)</text></g><!--entity RESTC--><g class="entity" data-entity="RESTC" data-source-line="15" data-uid="ent0008" id="entity_RESTC"><rect fill="#F1F1F1" height="45.6094" rx="2.5" ry="2.5" style="stroke:#2E75B6;stroke-width:0.5;" width="112.2646" x="637" y="76"/><text fill="#000000" font-family="Arial" font-size="11" lengthAdjust="spacing" textLength="72.9609" x="647" y="96.2104">Couche REST</text><text fill="#000000" font-family="Arial" font-size="11" lengthAdjust="spacing" textLength="92.2646" x="647" y="109.0151">(Fetch API, api())</text></g><!--entity AUDIO--><g class="entity" data-entity="AUDIO" data-source-line="16" data-uid="ent0009" id="entity_AUDIO"><rect fill="#F1F1F1" height="45.6094" rx="2.5" ry="2.5" style="stroke:#2E75B6;stroke-width:0.5;" width="208.1011" x="394" y="76"/><text fill="#000000" font-family="Arial" font-size="11" lengthAdjust="spacing" textLength="73.5571" x="404" y="96.2104">Moteur Audio</text><text fill="#000000" font-family="Arial" font-size="11" lengthAdjust="spacing" textLength="188.1011" x="404" y="109.0151">(MediaRecorder + Web Audio API)</text></g><!--entity RENDER--><g class="entity" data-entity="RENDER" data-source-line="17" data-uid="ent0010" id="entity_RENDER"><rect fill="#F1F1F1" height="45.6094" rx="2.5" ry="2.5" style="stroke:#2E75B6;stroke-width:0.5;" width="168.3711" x="191" y="76"/><text fill="#000000" font-family="Arial" font-size="11" lengthAdjust="spacing" textLength="91.7544" x="201" y="96.2104">Moteur de rendu</text><text fill="#000000" font-family="Arial" font-size="11" lengthAdjust="spacing" textLength="148.3711" x="201" y="109.0151">(DOM impératif, renderX())</text></g><!--entity DBJS--><g class="entity" data-entity="DBJS" data-source-line="29" data-uid="ent0018" id="entity_DBJS"><rect fill="#F1F1F1" height="45.6094" rx="2.5" ry="2.5" style="stroke:#2E75B6;stroke-width:0.5;" width="145.9629" x="719" y="619"/><text fill="#000000" font-family="Arial" font-size="11" lengthAdjust="spacing" textLength="63.2822" x="729" y="639.2104">database.js</text><text fill="#000000" font-family="Arial" font-size="11" lengthAdjust="spacing" textLength="125.9629" x="729" y="652.0151">(dbRun, dbAll, dbExec)</text></g><!--entity REST--><g class="entity" data-entity="REST" data-source-line="23" data-uid="ent0013" id="entity_REST"><rect fill="#F1F1F1" height="45.6094" rx="2.5" ry="2.5" style="stroke:#2E75B6;stroke-width:0.5;" width="156.0015" x="615" y="385"/><text fill="#000000" font-family="Arial" font-size="11" lengthAdjust="spacing" textLength="95.8848" x="625" y="405.2104">API REST Express</text><text fill="#000000" font-family="Arial" font-size="11" lengthAdjust="spacing" textLength="136.0015" x="625" y="418.0151">(29 routes / 7 domaines)</text></g><!--entity WSS--><g class="entity" data-entity="WSS" data-source-line="24" data-uid="ent0014" id="entity_WSS"><rect fill="#F1F1F1" height="45.6094" rx="2.5" ry="2.5" style="stroke:#2E75B6;stroke-width:0.5;" width="146.8008" x="424.5" y="385"/><text fill="#000000" font-family="Arial" font-size="11" lengthAdjust="spacing" textLength="99.1504" x="434.5" y="405.2104">Serveur Socket.IO</text><text fill="#000000" font-family="Arial" font-size="11" lengthAdjust="spacing" textLength="126.8008" x="434.5" y="418.0151">(6 événements clients)</text></g><!--entity AUTH--><g class="entity" data-entity="AUTH" data-source-line="25" data-uid="ent0015" id="entity_AUTH"><rect fill="#F1F1F1" height="45.6094" rx="2.5" ry="2.5" style="stroke:#2E75B6;stroke-width:0.5;" width="147.397" x="412.5" y="503"/><text fill="#000000" font-family="Arial" font-size="11" lengthAdjust="spacing" textLength="92.6406" x="422.5" y="523.2104">Middleware Auth</text><text fill="#000000" font-family="Arial" font-size="11" lengthAdjust="spacing" textLength="127.397" x="422.5" y="536.0151">(requireAuth, sessions)</text></g><!--entity RATE--><g class="entity" data-entity="RATE" data-source-line="26" data-uid="ent0016" id="entity_RATE"><rect fill="#F1F1F1" height="45.6094" rx="2.5" ry="2.5" style="stroke:#2E75B6;stroke-width:0.5;" width="162.5435" x="214.5" y="503"/><text fill="#000000" font-family="Arial" font-size="11" lengthAdjust="spacing" textLength="67.52" x="224.5" y="523.2104">Rate Limiter</text><text fill="#000000" font-family="Arial" font-size="11" lengthAdjust="spacing" textLength="142.5435" x="224.5" y="536.0151">(SQLite, upsert atomique)</text></g><!--entity FVAL--><g class="entity" data-entity="FVAL" data-source-line="27" data-uid="ent0017" id="entity_FVAL"><rect fill="#F1F1F1" height="45.6094" rx="2.5" ry="2.5" style="stroke:#2E75B6;stroke-width:0.5;" width="196.1021" x="595" y="503"/><text fill="#000000" font-family="Arial" font-size="11" lengthAdjust="spacing" textLength="117.4443" x="605" y="523.2104">Validateur de fichiers</text><text fill="#000000" font-family="Arial" font-size="11" lengthAdjust="spacing" textLength="176.1021" x="605" y="536.0151">(MIME + magic bytes, 10 types)</text></g><!--entity Users--><g class="entity" data-entity="Users" data-source-line="33" data-uid="ent0020" id="entity_Users"><rect fill="#F1F1F1" height="32.8047" rx="35" ry="35" style="stroke:#181818;stroke-width:0.5;" width="50.8032" x="827.5" y="789"/><text fill="#000000" font-family="Arial" font-size="11" lengthAdjust="spacing" textLength="30.8032" x="837.5" y="809.2104">Users</text></g><!--entity Messages--><g class="entity" data-entity="Messages" data-source-line="34" data-uid="ent0021" id="entity_Messages"><rect fill="#F1F1F1" height="32.8047" rx="35" ry="35" style="stroke:#181818;stroke-width:0.5;" width="73.9419" x="914" y="789"/><text fill="#000000" font-family="Arial" font-size="11" lengthAdjust="spacing" textLength="53.9419" x="924" y="809.2104">Messages</text></g><!--entity Groups / GroupMembers--><g class="entity" data-entity="Groups . GroupMembers" data-source-line="35" data-uid="ent0022" id="entity_Groups . GroupMembers"><rect fill="#F1F1F1" height="32.8047" rx="35" ry="35" style="stroke:#181818;stroke-width:0.5;" width="154.8682" x="1023.5" y="789"/><text fill="#000000" font-family="Arial" font-size="11" lengthAdjust="spacing" textLength="134.8682" x="1033.5" y="809.2104">Groups / GroupMembers</text></g><!--entity Sessions / RateLimits--><g class="entity" data-entity="Sessions . RateLimits" data-source-line="36" data-uid="ent0023" id="entity_Sessions . RateLimits"><rect fill="#F1F1F1" height="32.8047" rx="35" ry="35" style="stroke:#181818;stroke-width:0.5;" width="136.8643" x="827.5" y="883"/><text fill="#000000" font-family="Arial" font-size="11" lengthAdjust="spacing" textLength="116.8643" x="837.5" y="903.2104">Sessions / RateLimits</text></g><!--entity Reactions--><g class="entity" data-entity="Reactions" data-source-line="37" data-uid="ent0024" id="entity_Reactions"><rect fill="#F1F1F1" height="32.8047" rx="35" ry="35" style="stroke:#181818;stroke-width:0.5;" width="74.001" x="1000" y="883"/><text fill="#000000" font-family="Arial" font-size="11" lengthAdjust="spacing" textLength="54.001" x="1010" y="903.2104">Reactions</text></g><!--entity UPLOADS--><g class="entity" data-entity="UPLOADS" data-source-line="40" data-uid="ent0025" id="entity_UPLOADS"><path d="M902.5,494 L943.5,494 A3.75,3.75 0 0 1 946,496.5 L953,515 L1035.3086,515 A2.5,2.5 0 0 1 1037.8086,517.5 L1037.8086,555.1094 A2.5,2.5 0 0 1 1035.3086,557.6094 L902.5,557.6094 A2.5,2.5 0 0 1 900,555.1094 L900,496.5 A2.5,2.5 0 0 1 902.5,494" fill="#F1F1F1" style="stroke:#181818;stroke-width:0.5;"/><line style="stroke:#181818;stroke-width:0.5;" x1="900" x2="953" y1="515" y2="515"/><text fill="#000000" font-family="Arial" font-size="11" lengthAdjust="spacing" textLength="46.9004" x="910" y="532.2104">uploads/</text><text fill="#000000" font-family="Arial" font-size="11" lengthAdjust="spacing" textLength="107.8086" x="910" y="545.0151">(fichiers physiques)</text></g><!--entity app.js--><g class="entity" data-entity="app.js" data-source-line="42" data-uid="ent0026" id="entity_app.js"><ellipse cx="89" cy="408" fill="#F1F1F1" rx="8" ry="8" style="stroke:#181818;stroke-width:0.5;"/><text fill="#000000" font-family="Arial" font-size="11" lengthAdjust="spacing" textLength="32.9893" x="72.5054" y="435.2104">app.js</text></g><!--link HTML to app.js--><g class="link" data-entity-1="HTML" data-entity-2="app.js" data-source-line="42" data-uid="lnk27" id="link_HTML_app.js"><path d="M89,229.17 C89,273.31 89,364.39 89,392.95" fill="none" id="HTML-to-app.js" style="stroke:#181818;stroke-width:1;"/><polygon fill="#181818" points="89,398.95,93,389.95,89,393.95,85,389.95,89,398.95" style="stroke:#181818;stroke-width:1;"/></g><!--link CSS to HTML--><g class="link" data-entity-1="CSS" data-entity-2="HTML" data-source-line="43" data-uid="lnk28" id="link_CSS_HTML"><path d="M89,122.01 C89,139.81 89,158.77 89,176.66" fill="none" id="CSS-to-HTML" style="stroke:#181818;stroke-width:1;"/><polygon fill="#181818" points="89,182.66,93,173.66,89,177.66,85,173.66,89,182.66" style="stroke:#181818;stroke-width:1;"/></g><!--link WSC to WSS--><g class="link" data-entity-1="WSC" data-entity-2="WSS" data-source-line="44" data-uid="lnk29" id="link_WSC_WSS"><path d="M498,235.17 C498,273.61 498,340.22 498,378.73" fill="none" id="WSC-WSS" style="stroke:#181818;stroke-width:1;"/><polygon fill="#181818" points="498,229.17,494,238.17,498,234.17,502,238.17,498,229.17" style="stroke:#181818;stroke-width:1;"/><polygon fill="#181818" points="498,384.73,502,375.73,498,379.73,494,375.73,498,384.73" style="stroke:#181818;stroke-width:1;"/><text fill="#000000" font-family="Arial" font-size="11" lengthAdjust="spacing" textLength="91.1797" x="499" y="296.2104">WebSocket ws://</text></g><!--link RESTC to REST--><g class="link" data-entity-1="RESTC" data-entity-2="REST" data-source-line="45" data-uid="lnk30" id="link_RESTC_REST"><path d="M693,128.08 C693,184.59 693,321.97 693,378.71" fill="none" id="RESTC-REST" style="stroke:#181818;stroke-width:1;"/><polygon fill="#181818" points="693,122.08,689,131.08,693,127.08,697,131.08,693,122.08" style="stroke:#181818;stroke-width:1;"/><polygon fill="#181818" points="693,384.71,697,375.71,693,379.71,689,375.71,693,384.71" style="stroke:#181818;stroke-width:1;"/><text fill="#000000" font-family="Arial" font-size="11" lengthAdjust="spacing" textLength="49.543" x="694" y="210.2104">HTTP/1.1</text></g><!--link REST to AUTH--><g class="link" data-entity-1="REST" data-entity-2="AUTH" data-source-line="46" data-uid="lnk31" id="link_REST_AUTH"><path d="M653.58,431.09 C616.74,451.73 567.2942,479.4469 530.5142,500.0569" fill="none" id="REST-to-AUTH" style="stroke:#181818;stroke-width:1;"/><polygon fill="#181818" points="525.28,502.99,535.0867,502.0799,529.6419,500.5458,531.176,495.1009,525.28,502.99" style="stroke:#181818;stroke-width:1;"/></g><!--link AUTH to DBJS--><g class="link" data-entity-1="AUTH" data-entity-2="DBJS" data-source-line="47" data-uid="lnk32" id="link_AUTH_DBJS"><path d="M526.59,549 C542.38,557.11 560.79,566.01 578,573 C623.87,591.62 671.1438,606.8072 712.9338,619.0972" fill="none" id="AUTH-to-DBJS" style="stroke:#181818;stroke-width:1;"/><polygon fill="#181818" points="718.69,620.79,711.1842,614.4132,713.8931,619.3793,708.9271,622.0882,718.69,620.79" style="stroke:#181818;stroke-width:1;"/></g><!--link REST to RATE--><g class="link" data-entity-1="REST" data-entity-2="RATE" data-source-line="48" data-uid="lnk33" id="link_REST_RATE"><path d="M614.72,430.74 C554.53,447.59 469.35,471.76 395,494 C385.51,496.84 381.2621,498.1173 371.4321,501.1573" fill="none" id="REST-to-RATE" style="stroke:#181818;stroke-width:1;"/><polygon fill="#181818" points="365.7,502.93,375.48,504.0924,370.4768,501.4527,373.1164,496.4495,365.7,502.93" style="stroke:#181818;stroke-width:1;"/></g><!--link REST to FVAL--><g class="link" data-entity-1="REST" data-entity-2="FVAL" data-source-line="49" data-uid="lnk34" id="link_REST_FVAL"><path d="M693,431.09 C693,451.73 693,476.38 693,496.99" fill="none" id="REST-to-FVAL" style="stroke:#181818;stroke-width:1;"/><polygon fill="#181818" points="693,502.99,697,493.99,693,497.99,689,493.99,693,502.99" style="stroke:#181818;stroke-width:1;"/></g><!--link WSS to RATE--><g class="link" data-entity-1="WSS" data-entity-2="RATE" data-source-line="50" data-uid="lnk35" id="link_WSS_RATE"><path d="M459.53,431.09 C423.59,451.73 375.4231,479.3921 339.5331,500.0021" fill="none" id="WSS-to-RATE" style="stroke:#181818;stroke-width:1;"/><polygon fill="#181818" points="334.33,502.99,344.1266,501.9769,338.6659,500.5001,340.1427,495.0394,334.33,502.99" style="stroke:#181818;stroke-width:1;"/></g><!--link WSS to DBJS--><g class="link" data-entity-1="WSS" data-entity-2="DBJS" data-source-line="51" data-uid="lnk36" id="link_WSS_DBJS"><path d="M571.78,426.79 C661.4,448.74 801.63,484.35 809,494 C836.83,530.45 820.0641,582.0784 805.8641,613.2984" fill="none" id="WSS-to-DBJS" style="stroke:#181818;stroke-width:1;"/><polygon fill="#181818" points="803.38,618.76,810.7473,612.2237,805.4501,614.2087,803.4651,608.9115,803.38,618.76" style="stroke:#181818;stroke-width:1;"/></g><!--link REST to DBJS--><g class="link" data-entity-1="REST" data-entity-2="DBJS" data-source-line="52" data-uid="lnk37" id="link_REST_DBJS"><path d="M771.15,420.52 C796.04,428.29 820.98,441.28 836,463 C867.84,509.06 855.26,536.42 836,589 C831.93,600.1 828.3728,606.0365 820.6128,614.5465" fill="none" id="REST-to-DBJS" style="stroke:#181818;stroke-width:1;"/><polygon fill="#181818" points="816.57,618.98,825.5898,615.0249,819.939,615.2854,819.6785,609.6346,816.57,618.98" style="stroke:#181818;stroke-width:1;"/></g><!--link DBJS to DB--><g class="link" data-entity-1="DBJS" data-entity-2="DB" data-source-line="53" data-uid="lnk38" id="link_DBJS_DB"><path d="M792,665.12 C792,676.005 792,689.9737 792,704.8492 C792,708.5681 792,712.3436 792,716.1418 C792,718.0409 792,713.9457 792,715.8518" fill="none" id="DBJS-to-DB" style="stroke:#181818;stroke-width:1;"/><polygon fill="#181818" points="792,721.8518,796,712.8518,792,716.8518,788,712.8518,792,721.8518" style="stroke:#181818;stroke-width:1;"/></g><!--link REST to UPLOADS--><g class="link" data-entity-1="REST" data-entity-2="UPLOADS" data-source-line="54" data-uid="lnk39" id="link_REST_UPLOADS"><path d="M771.05,425.21 C805.71,433.96 846.39,446.42 881,463 C898.36,471.32 911.169,479.4217 926.049,490.3817" fill="none" id="REST-to-UPLOADS" style="stroke:#181818;stroke-width:1;"/><polygon fill="#181818" points="930.88,493.94,926.0057,485.3819,926.8542,490.9747,921.2613,491.8232,930.88,493.94" style="stroke:#181818;stroke-width:1;"/></g><!--link AUDIO to WSC--><g class="link" data-entity-1="AUDIO" data-entity-2="WSC" data-source-line="55" data-uid="lnk40" id="link_AUDIO_WSC"><path d="M498,122.01 C498,139.81 498,158.77 498,176.66" fill="none" id="AUDIO-to-WSC" style="stroke:#181818;stroke-width:1;"/><polygon fill="#181818" points="498,182.66,502,173.66,498,177.66,494,173.66,498,182.66" style="stroke:#181818;stroke-width:1;"/></g><!--SRC=[TLJRKjim47tFL-oa3wLJan0ebpATpfXSW3Qtne7qeI-AjS5gRCj8Cf1scEb7z2Vu3lwaNzAL70V2vSNMQdUFTizPISz5cZ754k0uOtbiEZ8rVPOW-4gmkA9VyWVY5qAZySWPoYIJAPBBB684XQ5XwKMCBuKSISLHDMKi5RpPRk_l7kqz2ijOE6SNk1RKwEmSx7ruBMWSYN2UejRGgErMeB9qGhNFhiG5CvWhcE0K_ltv2yrOK0LL-5s1XuAWAbAEDxN89F6FT2Eup356On22eV-k2ap3oRZNNS_GjizQg3Kb72l1FRXYHDWqHWtD82ZIQ47r0AmgObbM-wbT9Jtf2gCZYchMq8zH6o7Jb0c5mD_Utnbcw21DFuH3s3c0C699fZt0MDF6_XPHFjFG6lIAauEnFsu_HMtAF8pGSX78S8uMiLZKJWSGEcO8C15c8apaX_C2QX8qNm4QjOCnONJGX17umrCFM2OstXLfrlaiSTcqdtCXARE7NB0HXav6UEzKSZwBLi3uPwtJmIimt0vQodD2eiP19DdzdM96p3otZ-hxGp7zLdj4CBULsySJ4g2wiaXzoP64APHOURNrgjN-MWbKe6iHsZUPGZS6snz1oTpG0DHX7xXCcA2fV63ZAKHv-4e3mjY3-xkh-xiK4mhHIr5qAKJmZ0Z1UOpNZAR4pqr400elSneQQtcWgJ0Q8rrIEJvv2Z2o0zKLf3agEmxVkhJo8C-eTmFCo4JGRLZsyC98dRDOS5QgCHDX951PCdgdlJOfch0B4S9qGQnuqDW2iyXAIZhdVjSfiWP8O6pAj5M3KFXqbASUyAaVn_RNli6mo6uTVGcSbcK2LEbAc1gVhjfmrspYTpteV8L1lynpMceZbTFuZ1hLrSSxFIAD5kkRnwHiPeLrYnucqwTfmP9hYh6aEaxN8qR8GdkhQTSMFfEndVfgdiMISLsdkal-88iMsXA_fEfis1tuBVkMs8S8DZS_G_6ILEY5SQPxeEYcmYThqQJGex2wvt2j3-lrYhkHHO2Rt4FA6W_hZLh3kHoEcn7xSPOZUULp-gyi9zzaURnpbSPwbhFiPsazUCgkt1M7ekxcVm00]--></g></svg>