<svg xmlns="http://www.w3.org/2000/svg" xmlns:xlink="http://www.w3.org/1999/xlink" contentStyleType="text/css" data-diagram-type="ACTIVITY" height="1537px" preserveAspectRatio="none" style="width:1827px;height:1537px;background:#FFFFFF;" version="1.1" viewBox="0 0 1827 1537" width="1827px" zoomAndPan="magnify"><defs/><g><ellipse cx="910.4065" cy="20" fill="#222222" rx="10" ry="10" style="stroke:#222222;stroke-width:1;"/><rect fill="#D6E4F0" height="32.8047" rx="12.5" ry="12.5" style="stroke:#2E75B6;stroke-width:0.5;" width="269.8203" x="775.4963" y="50"/><text fill="#000000" font-family="Arial" font-size="11" lengthAdjust="spacing" textLength="249.8203" x="785.4963" y="70.2104">Ouverture de l'application dans le navigateur</text><polygon fill="#D6E4F0" points="796.8347,102.8047,1023.9783,102.8047,1035.9783,114.8047,1023.9783,126.8047,796.8347,126.8047,784.8347,114.8047,796.8347,102.8047" style="stroke:#2E75B6;stroke-width:0.5;"/><text fill="#000000" font-family="Arial" font-size="11" lengthAdjust="spacing" textLength="227.1436" x="796.8347" y="118.6128">Token valide présent dans localStorage ?</text><text fill="#000000" font-family="Arial" font-size="11" lengthAdjust="spacing" textLength="16.7578" x="768.0769" y="112.2104">oui</text><text fill="#000000" font-family="Arial" font-size="11" lengthAdjust="spacing" textLength="20.6733" x="1035.9783" y="112.2104">non</text><rect fill="#D6E4F0" height="32.8047" rx="12.5" ry="12.5" style="stroke:#2E75B6;stroke-width:0.5;" width="239.0547" x="548.4186" y="136.8047"/><text fill="#000000" font-family="Arial" font-size="11" lengthAdjust="spacing" textLength="219.0547" x="558.4186" y="157.0151">Restauration automatique de la session</text><rect fill="#D6E4F0" height="32.8047" rx="12.5" ry="12.5" style="stroke:#2E75B6;stroke-width:0.5;" width="230.1064" x="1037.8138" y="136.8047"/><text fill="#000000" font-family="Arial" font-size="11" lengthAdjust="spacing" textLength="210.1064" x="1047.8138" y="157.0151">Affichage de l'écran d'authentification</text><polygon fill="#D6E4F0" points="1119.3863,189.6094,1186.3477,189.6094,1198.3477,201.6094,1186.3477,213.6094,1119.3863,213.6094,1107.3863,201.6094,1119.3863,189.6094" style="stroke:#2E75B6;stroke-width:0.5;"/><text fill="#000000" font-family="Arial" font-size="11" lengthAdjust="spacing" textLength="66.9614" x="1119.3863" y="205.4175">Inscription ?</text><text fill="#000000" font-family="Arial" font-size="11" lengthAdjust="spacing" textLength="16.7578" x="1090.6285" y="199.0151">oui</text><text fill="#000000" font-family="Arial" font-size="11" lengthAdjust="spacing" textLength="56.7563" x="1198.3477" y="199.0151">connexion</text><rect fill="#D6E4F0" height="32.8047" rx="12.5" ry="12.5" style="stroke:#2E75B6;stroke-width:0.5;" width="334.9019" x="817.4733" y="223.6094"/><text fill="#000000" font-family="Arial" font-size="11" lengthAdjust="spacing" textLength="314.9019" x="827.4733" y="243.8198">Validation de l'identifiant (regex /^[a-zA-Z0-9_]{3,20}$/)</text><rect fill="#D6E4F0" height="32.8047" rx="12.5" ry="12.5" style="stroke:#2E75B6;stroke-width:0.5;" width="269.3154" x="850.2665" y="276.4141"/><text fill="#000000" font-family="Arial" font-size="11" lengthAdjust="spacing" textLength="249.3154" x="860.2665" y="296.6245">Validation du mot de passe (6-72 caractères)</text><rect fill="#D6E4F0" height="32.8047" rx="12.5" ry="12.5" style="stroke:#2E75B6;stroke-width:0.5;" width="279.0425" x="845.403" y="329.2188"/><text fill="#000000" font-family="Arial" font-size="11" lengthAdjust="spacing" textLength="259.0425" x="855.403" y="349.4292">hashPassword() — scryptSync(pwd, salt16, 64)</text><rect fill="#D6E4F0" height="32.8047" rx="12.5" ry="12.5" style="stroke:#2E75B6;stroke-width:0.5;" width="124.4141" x="922.7172" y="397.0234"/><text fill="#000000" font-family="Arial" font-size="11" lengthAdjust="spacing" textLength="104.4141" x="932.7172" y="417.2339">INSERT INTO Users</text><rect fill="#D6E4F0" height="32.8047" rx="12.5" ry="12.5" style="stroke:#2E75B6;stroke-width:0.5;" width="223.2153" x="1209.2021" y="223.6094"/><text fill="#000000" font-family="Arial" font-size="11" lengthAdjust="spacing" textLength="203.2153" x="1219.2021" y="243.8198">Récupération du hash stocké (Users)</text><rect fill="#D6E4F0" height="32.8047" rx="12.5" ry="12.5" style="stroke:#2E75B6;stroke-width:0.5;" width="296.8691" x="1172.3752" y="276.4141"/><text fill="#000000" font-family="Arial" font-size="11" lengthAdjust="spacing" textLength="276.8691" x="1182.3752" y="296.6245">verifyPassword() — scryptSync + timingSafeEqual</text><rect fill="#D6E4F0" height="32.8047" rx="12.5" ry="12.5" style="stroke:#2E75B6;stroke-width:0.5;" width="213.7085" x="1213.9555" y="377.6211"/><text fill="#000000" font-family="Arial" font-size="11" lengthAdjust="spacing" textLength="193.7085" x="1223.9555" y="397.8315">Incrémenter le compteur RateLimit</text><rect fill="#D6E4F0" height="32.8047" rx="12.5" ry="12.5" style="stroke:#2E75B6;stroke-width:0.5;" width="177.0508" x="1232.2844" y="445.4258"/><text fill="#000000" font-family="Arial" font-size="11" lengthAdjust="spacing" textLength="157.0508" x="1242.2844" y="465.6362">Retourner 401 Unauthorized</text><ellipse cx="1320.8098" cy="509.2305" fill="none" rx="11" ry="11" style="stroke:#222222;stroke-width:1;"/><ellipse cx="1320.8098" cy="509.2305" fill="#222222" rx="6" ry="6" style="stroke:#222222;stroke-width:1;"/><polygon fill="#D6E4F0" points="1250.7814,329.2188,1390.8381,329.2188,1402.8381,341.2188,1390.8381,353.2188,1250.7814,353.2188,1238.7814,341.2188,1250.7814,329.2188" style="stroke:#2E75B6;stroke-width:0.5;"/><text fill="#000000" font-family="Arial" font-size="11" lengthAdjust="spacing" textLength="20.6733" x="1324.8098" y="363.4292">non</text><text fill="#000000" font-family="Arial" font-size="11" lengthAdjust="spacing" textLength="140.0566" x="1250.7814" y="345.0269">Authentification réussie ?</text><polygon fill="#D6E4F0" points="1152.867,548.2305,1164.867,560.2305,1152.867,572.2305,1140.867,560.2305,1152.867,548.2305" style="stroke:#2E75B6;stroke-width:0.5;"/><rect fill="#D6E4F0" height="32.8047" rx="12.5" ry="12.5" style="stroke:#2E75B6;stroke-width:0.5;" width="295.8433" x="1004.9454" y="592.2305"/><text fill="#000000" font-family="Arial" font-size="11" lengthAdjust="spacing" textLength="275.8433" x="1014.9454" y="612.4409">Générer token — randomBytes(32).toString('hex')</text><rect fill="#D6E4F0" height="32.8047" rx="12.5" ry="12.5" style="stroke:#2E75B6;stroke-width:0.5;" width="251.1504" x="1027.2918" y="645.0352"/><text fill="#000000" font-family="Arial" font-size="11" lengthAdjust="spacing" textLength="231.1504" x="1037.2918" y="665.2456">INSERT INTO Sessions (expires : +7 jours)</text><rect fill="#D6E4F0" height="32.8047" rx="12.5" ry="12.5" style="stroke:#2E75B6;stroke-width:0.5;" width="174.0967" x="1065.8187" y="697.8398"/><text fill="#000000" font-family="Arial" font-size="11" lengthAdjust="spacing" textLength="154.0967" x="1075.8187" y="718.0503">Retourner le token au client</text><polygon fill="#D6E4F0" points="910.4065,736.6445,922.4065,748.6445,910.4065,760.6445,898.4065,748.6445,910.4065,736.6445" style="stroke:#2E75B6;stroke-width:0.5;"/><rect fill="#555555" height="6" rx="2.5" ry="2.5" style="stroke:#555555;stroke-width:1;" width="941.4233" x="439.6948" y="780.6445"/><rect fill="#D6E4F0" height="32.8047" rx="12.5" ry="12.5" style="stroke:#2E75B6;stroke-width:0.5;" width="245.8975" x="453.6948" y="806.6445"/><text fill="#000000" font-family="Arial" font-size="11" lengthAdjust="spacing" textLength="225.8975" x="463.6948" y="826.855">Établir connexion WebSocket (Socket.IO)</text><rect fill="#D6E4F0" height="32.8047" rx="12.5" ry="12.5" style="stroke:#2E75B6;stroke-width:0.5;" width="207.7412" x="727.5923" y="806.6445"/><text fill="#000000" font-family="Arial" font-size="11" lengthAdjust="spacing" textLength="187.7412" x="737.5923" y="826.855">GET /users — liste des utilisateurs</text><rect fill="#D6E4F0" height="32.8047" rx="12.5" ry="12.5" style="stroke:#2E75B6;stroke-width:0.5;" width="199.3945" x="963.3335" y="806.6445"/><text fill="#000000" font-family="Arial" font-size="11" lengthAdjust="spacing" textLength="179.3945" x="973.3335" y="826.855">GET /groups — liste des groupes</text><rect fill="#D6E4F0" height="32.8047" rx="12.5" ry="12.5" style="stroke:#2E75B6;stroke-width:0.5;" width="176.3901" x="1190.728" y="806.6445"/><text fill="#000000" font-family="Arial" font-size="11" lengthAdjust="spacing" textLength="156.3901" x="1200.728" y="826.855">GET /profile — profil courant</text><rect fill="#555555" height="6" rx="2.5" ry="2.5" style="stroke:#555555;stroke-width:1;" width="941.4233" x="439.6948" y="859.4492"/><rect fill="#D6E4F0" height="32.8047" rx="12.5" ry="12.5" style="stroke:#2E75B6;stroke-width:0.5;" width="394.1074" x="713.3528" y="885.4492"/><text fill="#000000" font-family="Arial" font-size="11" lengthAdjust="spacing" textLength="374.1074" x="723.3528" y="905.6597">Restaurer conversations récentes (localStorage : lanRecent:{user})</text><rect fill="#D6E4F0" height="32.8047" rx="12.5" ry="12.5" style="stroke:#2E75B6;stroke-width:0.5;" width="191.5366" x="814.6382" y="982.2539"/><text fill="#000000" font-family="Arial" font-size="11" lengthAdjust="spacing" textLength="171.5366" x="824.6382" y="1002.4644">Attente d'une action utilisateur</text><polygon fill="#D6E4F0" points="65.4377,1035.0586,190.7185,1035.0586,202.7185,1047.0586,190.7185,1059.0586,65.4377,1059.0586,53.4377,1047.0586,65.4377,1035.0586" style="stroke:#2E75B6;stroke-width:0.5;"/><text fill="#000000" font-family="Arial" font-size="11" lengthAdjust="spacing" textLength="125.2808" x="65.4377" y="1050.8667">Sélection conversation</text><rect fill="#D6E4F0" height="32.8047" rx="12.5" ry="12.5" style="stroke:#2E75B6;stroke-width:0.5;" width="197.0581" x="29.5491" y="1079.0586"/><text fill="#000000" font-family="Arial" font-size="11" lengthAdjust="spacing" textLength="177.0581" x="39.5491" y="1099.269">GET /history?limit=100 (paginé)</text><rect fill="#D6E4F0" height="32.8047" rx="12.5" ry="12.5" style="stroke:#2E75B6;stroke-width:0.5;" width="141.3062" x="57.425" y="1146.8633"/><text fill="#000000" font-family="Arial" font-size="11" lengthAdjust="spacing" textLength="121.3062" x="67.425" y="1167.0737">POST /messages/seen</text><rect fill="#D6E4F0" height="32.8047" rx="12.5" ry="12.5" style="stroke:#2E75B6;stroke-width:0.5;" width="234.1563" x="11" y="1214.668"/><text fill="#000000" font-family="Arial" font-size="11" lengthAdjust="spacing" textLength="214.1563" x="21" y="1234.8784">emit chat:seen → expéditeur (✓ → ✓✓)</text><polygon fill="#D6E4F0" points="324.9392,1035.0586,440.2566,1035.0586,452.2566,1047.0586,440.2566,1059.0586,324.9392,1059.0586,312.9392,1047.0586,324.9392,1035.0586" style="stroke:#2E75B6;stroke-width:0.5;"/><text fill="#000000" font-family="Arial" font-size="11" lengthAdjust="spacing" textLength="115.3174" x="324.9392" y="1050.8667">Envoi message texte</text><rect fill="#D6E4F0" height="32.8047" rx="12.5" ry="12.5" style="stroke:#2E75B6;stroke-width:0.5;" width="212.4248" x="276.3855" y="1079.0586"/><text fill="#000000" font-family="Arial" font-size="11" lengthAdjust="spacing" textLength="192.4248" x="286.3855" y="1099.269">sanitizeMessage() — slice(0, 3000)</text><rect fill="#D6E4F0" height="32.8047" rx="12.5" ry="12.5" style="stroke:#2E75B6;stroke-width:0.5;" width="191.8643" x="286.6658" y="1146.8633"/><text fill="#000000" font-family="Arial" font-size="11" lengthAdjust="spacing" textLength="171.8643" x="296.6658" y="1167.0737">checkRateLimit (20 msg / 10 s)</text><rect fill="#D6E4F0" height="32.8047" rx="12.5" ry="12.5" style="stroke:#2E75B6;stroke-width:0.5;" width="254.8833" x="255.1563" y="1214.668"/><text fill="#000000" font-family="Arial" font-size="11" lengthAdjust="spacing" textLength="234.8833" x="265.1563" y="1234.8784">emitWithAck('chat:private', ...) timeout 5 s</text><rect fill="#D6E4F0" height="32.8047" rx="12.5" ry="12.5" style="stroke:#2E75B6;stroke-width:0.5;" width="252.1279" x="256.5339" y="1282.4727"/><text fill="#000000" font-family="Arial" font-size="11" lengthAdjust="spacing" textLength="232.1279" x="266.5339" y="1302.6831">INSERT INTO Messages — emitToUser × 2</text><polygon fill="#D6E4F0" points="638.6072,1035.0586,706.616,1035.0586,718.616,1047.0586,706.616,1059.0586,638.6072,1059.0586,626.6072,1047.0586,638.6072,1035.0586" style="stroke:#2E75B6;stroke-width:0.5;"/><text fill="#000000" font-family="Arial" font-size="11" lengthAdjust="spacing" textLength="68.0088" x="638.6072" y="1050.8667">Envoi fichier</text><rect fill="#D6E4F0" height="32.8047" rx="12.5" ry="12.5" style="stroke:#2E75B6;stroke-width:0.5;" width="140.8604" x="602.1814" y="1079.0586"/><text fill="#000000" font-family="Arial" font-size="11" lengthAdjust="spacing" textLength="120.8604" x="612.1814" y="1099.269">POST /upload (Multer)</text><rect fill="#D6E4F0" height="32.8047" rx="12.5" ry="12.5" style="stroke:#2E75B6;stroke-width:0.5;" width="285.144" x="530.0396" y="1146.8633"/><text fill="#000000" font-family="Arial" font-size="11" lengthAdjust="spacing" textLength="265.144" x="540.0396" y="1167.0737">detectFileSignature() + isMimeTypeConsistent()</text><rect fill="#D6E4F0" height="32.8047" rx="12.5" ry="12.5" style="stroke:#2E75B6;stroke-width:0.5;" width="264.3257" x="540.4487" y="1214.668"/><text fill="#000000" font-family="Arial" font-size="11" lengthAdjust="spacing" textLength="244.3257" x="550.4487" y="1234.8784">emit chat:private { filePath, messageType }</text><polygon fill="#D6E4F0" points="930.3601,1035.0586,1029.5964,1035.0586,1041.5964,1047.0586,1029.5964,1059.0586,930.3601,1059.0586,918.3601,1047.0586,930.3601,1035.0586" style="stroke:#2E75B6;stroke-width:0.5;"/><text fill="#000000" font-family="Arial" font-size="11" lengthAdjust="spacing" textLength="99.2363" x="930.3601" y="1050.8667">Scroll vers le haut</text><rect fill="#D6E4F0" height="32.8047" rx="12.5" ry="12.5" style="stroke:#2E75B6;stroke-width:0.5;" width="179.124" x="890.4163" y="1127.4609"/><text fill="#000000" font-family="Arial" font-size="11" lengthAdjust="spacing" textLength="159.124" x="900.4163" y="1147.6714">GET /history?beforeId=minId</text><rect fill="#D6E4F0" height="32.8047" rx="12.5" ry="12.5" style="stroke:#2E75B6;stroke-width:0.5;" width="269.5894" x="845.1836" y="1195.2656"/><text fill="#000000" font-family="Arial" font-size="11" lengthAdjust="spacing" textLength="249.5894" x="855.1836" y="1215.4761">prependHistory() — restauration du scrollTop</text><polygon fill="#D6E4F0" points="917.5125,1079.0586,1042.4441,1079.0586,1054.4441,1091.0586,1042.4441,1103.0586,917.5125,1103.0586,905.5125,1091.0586,917.5125,1079.0586" style="stroke:#2E75B6;stroke-width:0.5;"/><text fill="#000000" font-family="Arial" font-size="11" lengthAdjust="spacing" textLength="16.7578" x="983.9783" y="1113.269">oui</text><text fill="#000000" font-family="Arial" font-size="11" lengthAdjust="spacing" textLength="124.9316" x="917.5125" y="1094.8667">historyMeta.hasMore ?</text><polygon fill="#D6E4F0" points="979.9783,1252.4727,991.9783,1264.4727,979.9783,1276.4727,967.9783,1264.4727,979.9783,1252.4727" style="stroke:#2E75B6;stroke-width:0.5;"/><polygon fill="#D6E4F0" points="1267.7952,1035.0586,1303.7976,1035.0586,1315.7976,1047.0586,1303.7976,1059.0586,1267.7952,1059.0586,1255.7952,1047.0586,1267.7952,1035.0586" style="stroke:#2E75B6;stroke-width:0.5;"/><text fill="#000000" font-family="Arial" font-size="11" lengthAdjust="spacing" textLength="36.0024" x="1267.7952" y="1050.8667">Ctrl+K</text><rect fill="#D6E4F0" height="32.8047" rx="12.5" ry="12.5" style="stroke:#2E75B6;stroke-width:0.5;" width="184.8228" x="1193.385" y="1079.0586"/><text fill="#000000" font-family="Arial" font-size="11" lengthAdjust="spacing" textLength="164.8228" x="1203.385" y="1099.269">Ouvrir palette de commandes</text><rect fill="#D6E4F0" height="32.8047" rx="12.5" ry="12.5" style="stroke:#2E75B6;stroke-width:0.5;" width="258.0469" x="1156.7729" y="1146.8633"/><text fill="#000000" font-family="Arial" font-size="11" lengthAdjust="spacing" textLength="238.0469" x="1166.7729" y="1167.0737">Filtrage instantané (utilisateurs + groupes)</text><polygon fill="#D6E4F0" points="1557.7874,1035.0586,1646.8455,1035.0586,1658.8455,1047.0586,1646.8455,1059.0586,1557.7874,1059.0586,1545.7874,1047.0586,1557.7874,1035.0586" style="stroke:#2E75B6;stroke-width:0.5;"/><text fill="#000000" font-family="Arial" font-size="11" lengthAdjust="spacing" textLength="89.0581" x="1557.7874" y="1050.8667">Frappe en cours</text><rect fill="#D6E4F0" height="32.8047" rx="12.5" ry="12.5" style="stroke:#2E75B6;stroke-width:0.5;" width="253.2129" x="1475.71" y="1079.0586"/><text fill="#000000" font-family="Arial" font-size="11" lengthAdjust="spacing" textLength="233.2129" x="1485.71" y="1099.269">emit chat:typing (relayé sans persistence)</text><rect fill="#D6E4F0" height="32.8047" rx="12.5" ry="12.5" style="stroke:#2E75B6;stroke-width:0.5;" width="334.9932" x="1434.8198" y="1146.8633"/><text fill="#000000" font-family="Arial" font-size="11" lengthAdjust="spacing" textLength="314.9932" x="1444.8198" y="1167.0737">Afficher indicateur après 150 ms, effacer après 1 200 ms</text><polygon fill="#D6E4F0" points="910.4065,938.2539,922.4065,950.2539,910.4065,962.2539,898.4065,950.2539,910.4065,938.2539" style="stroke:#2E75B6;stroke-width:0.5;"/><polygon fill="#D6E4F0" points="799.2759,1355.2773,1021.5371,1355.2773,1033.5371,1367.2773,1021.5371,1379.2773,799.2759,1379.2773,787.2759,1367.2773,799.2759,1355.2773" style="stroke:#2E75B6;stroke-width:0.5;"/><text fill="#000000" font-family="Arial" font-size="11" lengthAdjust="spacing" textLength="222.2612" x="799.2759" y="1371.0854">Session active et WebSocket connecté ?</text><rect fill="#D6E4F0" height="32.8047" rx="12.5" ry="12.5" style="stroke:#2E75B6;stroke-width:0.5;" width="253.7017" x="783.5557" y="1399.2773"/><text fill="#000000" font-family="Arial" font-size="11" lengthAdjust="spacing" textLength="233.7017" x="793.5557" y="1419.4878">disconnect → UPDATE Users SET last_seen</text><rect fill="#D6E4F0" height="32.8047" rx="12.5" ry="12.5" style="stroke:#2E75B6;stroke-width:0.5;" width="264.8521" x="777.9805" y="1452.082"/><text fill="#000000" font-family="Arial" font-size="11" lengthAdjust="spacing" textLength="244.8521" x="787.9805" y="1472.2925">emitPresence() — diffusion à tous les clients</text><ellipse cx="910.4065" cy="1515.8867" fill="none" rx="11" ry="11" style="stroke:#222222;stroke-width:1;"/><ellipse cx="910.4065" cy="1515.8867" fill="#222222" rx="6" ry="6" style="stroke:#222222;stroke-width:1;"/><line style="stroke:#1F3864;stroke-width:1;" x1="910.4065" x2="910.4065" y1="30" y2="50"/><polygon fill="#1F3864" points="906.4065,40,910.4065,50,914.4065,40,910.4065,44" style="stroke:#1F3864;stroke-width:1;"/><line style="stroke:#1F3864;stroke-width:1;" x1="984.9243" x2="984.9243" y1="256.4141" y2="276.4141"/><polygon fill="#1F3864" points="980.9243,266.4141,984.9243,276.4141,988.9243,266.4141,984.9243,270.4141" style="stroke:#1F3864;stroke-width:1;"/><line style="stroke:#1F3864;stroke-width:1;" x1="984.9243" x2="984.9243" y1="309.2188" y2="329.2188"/><polygon fill="#1F3864" points="980.9243,319.2188,984.9243,329.2188,988.9243,319.2188,984.9243,323.2188" style="stroke:#1F3864;stroke-width:1;"/><line style="stroke:#1F3864;stroke-width:1;" x1="984.9243" x2="984.9243" y1="362.0234" y2="397.0234"/><polygon fill="#1F3864" points="980.9243,387.0234,984.9243,397.0234,988.9243,387.0234,984.9243,391.0234" style="stroke:#1F3864;stroke-width:1;"/><line style="stroke:#1F3864;stroke-width:1;" x1="1320.8098" x2="1320.8098" y1="256.4141" y2="276.4141"/><polygon fill="#1F3864" points="1316.8098,266.4141,1320.8098,276.4141,1324.8098,266.4141,1320.8098,270.4141" style="stroke:#1F3864;stroke-width:1;"/><line style="stroke:#1F3864;stroke-width:1;" x1="1320.8098" x2="1320.8098" y1="410.4258" y2="445.4258"/><polygon fill="#1F3864" points="1316.8098,435.4258,1320.8098,445.4258,1324.8098,435.4258,1320.8098,439.4258" style="stroke:#1F3864;stroke-width:1;"/><line style="stroke:#1F3864;stroke-width:1;" x1="1320.8098" x2="1320.8098" y1="478.2305" y2="498.2305"/><polygon fill="#1F3864" points="1316.8098,488.2305,1320.8098,498.2305,1324.8098,488.2305,1320.8098,492.2305" style="stroke:#1F3864;stroke-width:1;"/><line style="stroke:#1F3864;stroke-width:1;" x1="1320.8098" x2="1320.8098" y1="353.2188" y2="377.6211"/><polygon fill="#1F3864" points="1316.8098,367.6211,1320.8098,377.6211,1324.8098,367.6211,1320.8098,371.6211" style="stroke:#1F3864;stroke-width:1;"/><line style="stroke:#1F3864;stroke-width:1;" x1="1402.8381" x2="1437.664" y1="341.2188" y2="341.2188"/><polygon fill="#1F3864" points="1433.664,452.4258,1437.664,462.4258,1441.664,452.4258,1437.664,456.4258" style="stroke:#1F3864;stroke-width:1;"/><line style="stroke:#1F3864;stroke-width:1;" x1="1437.664" x2="1437.664" y1="341.2188" y2="560.2305"/><line style="stroke:#1F3864;stroke-width:1;" x1="1437.664" x2="1164.867" y1="560.2305" y2="560.2305"/><polygon fill="#1F3864" points="1174.867,556.2305,1164.867,560.2305,1174.867,564.2305,1170.867,560.2305" style="stroke:#1F3864;stroke-width:1;"/><line style="stroke:#1F3864;stroke-width:1;" x1="1320.8098" x2="1320.8098" y1="309.2188" y2="329.2188"/><polygon fill="#1F3864" points="1316.8098,319.2188,1320.8098,329.2188,1324.8098,319.2188,1320.8098,323.2188" style="stroke:#1F3864;stroke-width:1;"/><line style="stroke:#1F3864;stroke-width:1;" x1="1107.3863" x2="984.9243" y1="201.6094" y2="201.6094"/><line style="stroke:#1F3864;stroke-width:1;" x1="984.9243" x2="984.9243" y1="201.6094" y2="223.6094"/><polygon fill="#1F3864" points="980.9243,213.6094,984.9243,223.6094,988.9243,213.6094,984.9243,217.6094" style="stroke:#1F3864;stroke-width:1;"/><line style="stroke:#1F3864;stroke-width:1;" x1="1198.3477" x2="1320.8098" y1="201.6094" y2="201.6094"/><line style="stroke:#1F3864;stroke-width:1;" x1="1320.8098" x2="1320.8098" y1="201.6094" y2="223.6094"/><polygon fill="#1F3864" points="1316.8098,213.6094,1320.8098,223.6094,1324.8098,213.6094,1320.8098,217.6094" style="stroke:#1F3864;stroke-width:1;"/><line style="stroke:#1F3864;stroke-width:1;" x1="984.9243" x2="984.9243" y1="429.8281" y2="560.2305"/><line style="stroke:#1F3864;stroke-width:1;" x1="984.9243" x2="1140.867" y1="560.2305" y2="560.2305"/><polygon fill="#1F3864" points="1130.867,556.2305,1140.867,560.2305,1130.867,564.2305,1134.867,560.2305" style="stroke:#1F3864;stroke-width:1;"/><line style="stroke:#1F3864;stroke-width:1;" x1="1152.867" x2="1152.867" y1="169.6094" y2="189.6094"/><polygon fill="#1F3864" points="1148.867,179.6094,1152.867,189.6094,1156.867,179.6094,1152.867,183.6094" style="stroke:#1F3864;stroke-width:1;"/><line style="stroke:#1F3864;stroke-width:1;" x1="1152.867" x2="1152.867" y1="572.2305" y2="592.2305"/><polygon fill="#1F3864" points="1148.867,582.2305,1152.867,592.2305,1156.867,582.2305,1152.867,586.2305" style="stroke:#1F3864;stroke-width:1;"/><line style="stroke:#1F3864;stroke-width:1;" x1="1152.867" x2="1152.867" y1="625.0352" y2="645.0352"/><polygon fill="#1F3864" points="1148.867,635.0352,1152.867,645.0352,1156.867,635.0352,1152.867,639.0352" style="stroke:#1F3864;stroke-width:1;"/><line style="stroke:#1F3864;stroke-width:1;" x1="1152.867" x2="1152.867" y1="677.8398" y2="697.8398"/><polygon fill="#1F3864" points="1148.867,687.8398,1152.867,697.8398,1156.867,687.8398,1152.867,691.8398" style="stroke:#1F3864;stroke-width:1;"/><line style="stroke:#1F3864;stroke-width:1;" x1="784.8347" x2="667.946" y1="114.8047" y2="114.8047"/><line style="stroke:#1F3864;stroke-width:1;" x1="667.946" x2="667.946" y1="114.8047" y2="136.8047"/><polygon fill="#1F3864" points="663.946,126.8047,667.946,136.8047,671.946,126.8047,667.946,130.8047" style="stroke:#1F3864;stroke-width:1;"/><line style="stroke:#1F3864;stroke-width:1;" x1="1035.9783" x2="1152.867" y1="114.8047" y2="114.8047"/><line style="stroke:#1F3864;stroke-width:1;" x1="1152.867" x2="1152.867" y1="114.8047" y2="136.8047"/><polygon fill="#1F3864" points="1148.867,126.8047,1152.867,136.8047,1156.867,126.8047,1152.867,130.8047" style="stroke:#1F3864;stroke-width:1;"/><line style="stroke:#1F3864;stroke-width:1;" x1="667.946" x2="667.946" y1="169.6094" y2="748.6445"/><line style="stroke:#1F3864;stroke-width:1;" x1="667.946" x2="898.4065" y1="748.6445" y2="748.6445"/><polygon fill="#1F3864" points="888.4065,744.6445,898.4065,748.6445,888.4065,752.6445,892.4065,748.6445" style="stroke:#1F3864;stroke-width:1;"/><line style="stroke:#1F3864;stroke-width:1;" x1="1152.867" x2="1152.867" y1="730.6445" y2="748.6445"/><line style="stroke:#1F3864;stroke-width:1;" x1="1152.867" x2="922.4065" y1="748.6445" y2="748.6445"/><polygon fill="#1F3864" points="932.4065,744.6445,922.4065,748.6445,932.4065,752.6445,928.4065,748.6445" style="stroke:#1F3864;stroke-width:1;"/><line style="stroke:#1F3864;stroke-width:1;" x1="910.4065" x2="910.4065" y1="82.8047" y2="102.8047"/><polygon fill="#1F3864" points="906.4065,92.8047,910.4065,102.8047,914.4065,92.8047,910.4065,96.8047" style="stroke:#1F3864;stroke-width:1;"/><line style="stroke:#1F3864;stroke-width:1;" x1="576.6436" x2="576.6436" y1="786.6445" y2="806.6445"/><polygon fill="#1F3864" points="572.6436,796.6445,576.6436,806.6445,580.6436,796.6445,576.6436,800.6445" style="stroke:#1F3864;stroke-width:1;"/><line style="stroke:#1F3864;stroke-width:1;" x1="831.4629" x2="831.4629" y1="786.6445" y2="806.6445"/><polygon fill="#1F3864" points="827.4629,796.6445,831.4629,806.6445,835.4629,796.6445,831.4629,800.6445" style="stroke:#1F3864;stroke-width:1;"/><line style="stroke:#1F3864;stroke-width:1;" x1="1063.0308" x2="1063.0308" y1="786.6445" y2="806.6445"/><polygon fill="#1F3864" points="1059.0308,796.6445,1063.0308,806.6445,1067.0308,796.6445,1063.0308,800.6445" style="stroke:#1F3864;stroke-width:1;"/><line style="stroke:#1F3864;stroke-width:1;" x1="1278.9231" x2="1278.9231" y1="786.6445" y2="806.6445"/><polygon fill="#1F3864" points="1274.9231,796.6445,1278.9231,806.6445,1282.9231,796.6445,1278.9231,800.6445" style="stroke:#1F3864;stroke-width:1;"/><line style="stroke:#1F3864;stroke-width:1;" x1="576.6436" x2="576.6436" y1="839.4492" y2="859.4492"/><polygon fill="#1F3864" points="572.6436,849.4492,576.6436,859.4492,580.6436,849.4492,576.6436,853.4492" style="stroke:#1F3864;stroke-width:1;"/><line style="stroke:#1F3864;stroke-width:1;" x1="831.4629" x2="831.4629" y1="839.4492" y2="859.4492"/><polygon fill="#1F3864" points="827.4629,849.4492,831.4629,859.4492,835.4629,849.4492,831.4629,853.4492" style="stroke:#1F3864;stroke-width:1;"/><line style="stroke:#1F3864;stroke-width:1;" x1="1063.0308" x2="1063.0308" y1="839.4492" y2="859.4492"/><polygon fill="#1F3864" points="1059.0308,849.4492,1063.0308,859.4492,1067.0308,849.4492,1063.0308,853.4492" style="stroke:#1F3864;stroke-width:1;"/><line style="stroke:#1F3864;stroke-width:1;" x1="1278.9231" x2="1278.9231" y1="839.4492" y2="859.4492"/><polygon fill="#1F3864" points="1274.9231,849.4492,1278.9231,859.4492,1282.9231,849.4492,1278.9231,853.4492" style="stroke:#1F3864;stroke-width:1;"/><line style="stroke:#1F3864;stroke-width:1;" x1="910.4065" x2="910.4065" y1="760.6445" y2="780.6445"/><polygon fill="#1F3864" points="906.4065,770.6445,910.4065,780.6445,914.4065,770.6445,910.4065,774.6445" style="stroke:#1F3864;stroke-width:1;"/><line style="stroke:#1F3864;stroke-width:1;" x1="910.4065" x2="910.4065" y1="865.4492" y2="885.4492"/><polygon fill="#1F3864" points="906.4065,875.4492,910.4065,885.4492,914.4065,875.4492,910.4065,879.4492" style="stroke:#1F3864;stroke-width:1;"/><line style="stroke:#1F3864;stroke-width:1;" x1="128.0781" x2="128.0781" y1="1111.8633" y2="1146.8633"/><polygon fill="#1F3864" points="124.0781,1136.8633,128.0781,1146.8633,132.0781,1136.8633,128.0781,1140.8633" style="stroke:#1F3864;stroke-width:1;"/><line style="stroke:#1F3864;stroke-width:1;" x1="128.0781" x2="128.0781" y1="1179.668" y2="1214.668"/><polygon fill="#1F3864" points="124.0781,1204.668,128.0781,1214.668,132.0781,1204.668,128.0781,1208.668" style="stroke:#1F3864;stroke-width:1;"/><line style="stroke:#1F3864;stroke-width:1;" x1="382.5979" x2="382.5979" y1="1111.8633" y2="1146.8633"/><polygon fill="#1F3864" points="378.5979,1136.8633,382.5979,1146.8633,386.5979,1136.8633,382.5979,1140.8633" style="stroke:#1F3864;stroke-width:1;"/><line style="stroke:#1F3864;stroke-width:1;" x1="382.5979" x2="382.5979" y1="1179.668" y2="1214.668"/><polygon fill="#1F3864" points="378.5979,1204.668,382.5979,1214.668,386.5979,1204.668,382.5979,1208.668" style="stroke:#1F3864;stroke-width:1;"/><line style="stroke:#1F3864;stroke-width:1;" x1="382.5979" x2="382.5979" y1="1247.4727" y2="1282.4727"/><polygon fill="#1F3864" points="378.5979,1272.4727,382.5979,1282.4727,386.5979,1272.4727,382.5979,1276.4727" style="stroke:#1F3864;stroke-width:1;"/><line style="stroke:#1F3864;stroke-width:1;" x1="672.6116" x2="672.6116" y1="1111.8633" y2="1146.8633"/><polygon fill="#1F3864" points="668.6116,1136.8633,672.6116,1146.8633,676.6116,1136.8633,672.6116,1140.8633" style="stroke:#1F3864;stroke-width:1;"/><line style="stroke:#1F3864;stroke-width:1;" x1="672.6116" x2="672.6116" y1="1179.668" y2="1214.668"/><polygon fill="#1F3864" points="668.6116,1204.668,672.6116,1214.668,676.6116,1204.668,672.6116,1208.668" style="stroke:#1F3864;stroke-width:1;"/><line style="stroke:#1F3864;stroke-width:1;" x1="979.9783" x2="979.9783" y1="1160.2656" y2="1195.2656"/><polygon fill="#1F3864" points="975.9783,1185.2656,979.9783,1195.2656,983.9783,1185.2656,979.9783,1189.2656" style="stroke:#1F3864;stroke-width:1;"/><line style="stroke:#1F3864;stroke-width:1;" x1="979.9783" x2="979.9783" y1="1103.0586" y2="1127.4609"/><polygon fill="#1F3864" points="975.9783,1117.4609,979.9783,1127.4609,983.9783,1117.4609,979.9783,1121.4609" style="stroke:#1F3864;stroke-width:1;"/><line style="stroke:#1F3864;stroke-width:1;" x1="1054.4441" x2="1124.7729" y1="1091.0586" y2="1091.0586"/><polygon fill="#1F3864" points="1120.7729,1167.7656,1124.7729,1177.7656,1128.7729,1167.7656,1124.7729,1171.7656" style="stroke:#1F3864;stroke-width:1;"/><line style="stroke:#1F3864;stroke-width:1;" x1="1124.7729" x2="1124.7729" y1="1091.0586" y2="1264.4727"/><line style="stroke:#1F3864;stroke-width:1;" x1="1124.7729" x2="991.9783" y1="1264.4727" y2="1264.4727"/><polygon fill="#1F3864" points="1001.9783,1260.4727,991.9783,1264.4727,1001.9783,1268.4727,997.9783,1264.4727" style="stroke:#1F3864;stroke-width:1;"/><line style="stroke:#1F3864;stroke-width:1;" x1="979.9783" x2="979.9783" y1="1228.0703" y2="1252.4727"/><polygon fill="#1F3864" points="975.9783,1242.4727,979.9783,1252.4727,983.9783,1242.4727,979.9783,1246.4727" style="stroke:#1F3864;stroke-width:1;"/><line style="stroke:#1F3864;stroke-width:1;" x1="1285.7964" x2="1285.7964" y1="1111.8633" y2="1146.8633"/><polygon fill="#1F3864" points="1281.7964,1136.8633,1285.7964,1146.8633,1289.7964,1136.8633,1285.7964,1140.8633" style="stroke:#1F3864;stroke-width:1;"/><line style="stroke:#1F3864;stroke-width:1;" x1="1602.3164" x2="1602.3164" y1="1111.8633" y2="1146.8633"/><polygon fill="#1F3864" points="1598.3164,1136.8633,1602.3164,1146.8633,1606.3164,1136.8633,1602.3164,1140.8633" style="stroke:#1F3864;stroke-width:1;"/><line style="stroke:#1F3864;stroke-width:1;" x1="128.0781" x2="128.0781" y1="1059.0586" y2="1079.0586"/><polygon fill="#1F3864" points="124.0781,1069.0586,128.0781,1079.0586,132.0781,1069.0586,128.0781,1073.0586" style="stroke:#1F3864;stroke-width:1;"/><line style="stroke:#1F3864;stroke-width:1;" x1="128.0781" x2="128.0781" y1="1247.4727" y2="1335.2773"/><polygon fill="#1F3864" points="124.0781,1325.2773,128.0781,1335.2773,132.0781,1325.2773,128.0781,1329.2773" style="stroke:#1F3864;stroke-width:1;"/><line style="stroke:#1F3864;stroke-width:1;" x1="382.5979" x2="382.5979" y1="1059.0586" y2="1079.0586"/><polygon fill="#1F3864" points="378.5979,1069.0586,382.5979,1079.0586,386.5979,1069.0586,382.5979,1073.0586" style="stroke:#1F3864;stroke-width:1;"/><line style="stroke:#1F3864;stroke-width:1;" x1="382.5979" x2="382.5979" y1="1315.2773" y2="1335.2773"/><polygon fill="#1F3864" points="378.5979,1325.2773,382.5979,1335.2773,386.5979,1325.2773,382.5979,1329.2773" style="stroke:#1F3864;stroke-width:1;"/><line style="stroke:#1F3864;stroke-width:1;" x1="672.6116" x2="672.6116" y1="1059.0586" y2="1079.0586"/><polygon fill="#1F3864" points="668.6116,1069.0586,672.6116,1079.0586,676.6116,1069.0586,672.6116,1073.0586" style="stroke:#1F3864;stroke-width:1;"/><line style="stroke:#1F3864;stroke-width:1;" x1="672.6116" x2="672.6116" y1="1247.4727" y2="1335.2773"/><polygon fill="#1F3864" points="668.6116,1325.2773,672.6116,1335.2773,676.6116,1325.2773,672.6116,1329.2773" style="stroke:#1F3864;stroke-width:1;"/><line style="stroke:#1F3864;stroke-width:1;" x1="979.9783" x2="979.9783" y1="1059.0586" y2="1079.0586"/><polygon fill="#1F3864" points="975.9783,1069.0586,979.9783,1079.0586,983.9783,1069.0586,979.9783,1073.0586" style="stroke:#1F3864;stroke-width:1;"/><line style="stroke:#1F3864;stroke-width:1;" x1="979.9783" x2="979.9783" y1="1276.4727" y2="1335.2773"/><polygon fill="#1F3864" points="975.9783,1325.2773,979.9783,1335.2773,983.9783,1325.2773,979.9783,1329.2773" style="stroke:#1F3864;stroke-width:1;"/><line style="stroke:#1F3864;stroke-width:1;" x1="1285.7964" x2="1285.7964" y1="1059.0586" y2="1079.0586"/><polygon fill="#1F3864" points="1281.7964,1069.0586,1285.7964,1079.0586,1289.7964,1069.0586,1285.7964,1073.0586" style="stroke:#1F3864;stroke-width:1;"/><line style="stroke:#1F3864;stroke-width:1;" x1="1285.7964" x2="1285.7964" y1="1179.668" y2="1335.2773"/><polygon fill="#1F3864" points="1281.7964,1325.2773,1285.7964,1335.2773,1289.7964,1325.2773,1285.7964,1329.2773" style="stroke:#1F3864;stroke-width:1;"/><line style="stroke:#1F3864;stroke-width:1;" x1="1602.3164" x2="1602.3164" y1="1059.0586" y2="1079.0586"/><polygon fill="#1F3864" points="1598.3164,1069.0586,1602.3164,1079.0586,1606.3164,1069.0586,1602.3164,1073.0586" style="stroke:#1F3864;stroke-width:1;"/><line style="stroke:#1F3864;stroke-width:1;" x1="1602.3164" x2="1602.3164" y1="1179.668" y2="1335.2773"/><polygon fill="#1F3864" points="1598.3164,1325.2773,1602.3164,1335.2773,1606.3164,1325.2773,1602.3164,1329.2773" style="stroke:#1F3864;stroke-width:1;"/><line style="stroke:#1F3864;stroke-width:1;" x1="202.7185" x2="312.9392" y1="1047.0586" y2="1047.0586"/><polygon fill="#1F3864" points="302.9392,1043.0586,312.9392,1047.0586,302.9392,1051.0586,306.9392,1047.0586" style="stroke:#1F3864;stroke-width:1;"/><line style="stroke:#1F3864;stroke-width:1;" x1="452.2566" x2="626.6072" y1="1047.0586" y2="1047.0586"/><polygon fill="#1F3864" points="616.6072,1043.0586,626.6072,1047.0586,616.6072,1051.0586,620.6072,1047.0586" style="stroke:#1F3864;stroke-width:1;"/><line style="stroke:#1F3864;stroke-width:1;" x1="718.616" x2="918.3601" y1="1047.0586" y2="1047.0586"/><polygon fill="#1F3864" points="908.3601,1043.0586,918.3601,1047.0586,908.3601,1051.0586,912.3601,1047.0586" style="stroke:#1F3864;stroke-width:1;"/><line style="stroke:#1F3864;stroke-width:1;" x1="1041.5964" x2="1255.7952" y1="1047.0586" y2="1047.0586"/><polygon fill="#1F3864" points="1245.7952,1043.0586,1255.7952,1047.0586,1245.7952,1051.0586,1249.7952,1047.0586" style="stroke:#1F3864;stroke-width:1;"/><line style="stroke:#1F3864;stroke-width:1;" x1="1315.7976" x2="1545.7874" y1="1047.0586" y2="1047.0586"/><polygon fill="#1F3864" points="1535.7874,1043.0586,1545.7874,1047.0586,1535.7874,1051.0586,1539.7874,1047.0586" style="stroke:#1F3864;stroke-width:1;"/><line style="stroke:#1F3864;stroke-width:1;" x1="910.4065" x2="910.4065" y1="1015.0586" y2="1020.0586"/><line style="stroke:#1F3864;stroke-width:1;" x1="910.4065" x2="128.0781" y1="1020.0586" y2="1020.0586"/><line style="stroke:#1F3864;stroke-width:1;" x1="128.0781" x2="128.0781" y1="1020.0586" y2="1035.0586"/><polygon fill="#1F3864" points="124.0781,1025.0586,128.0781,1035.0586,132.0781,1025.0586,128.0781,1029.0586" style="stroke:#1F3864;stroke-width:1;"/><line style="stroke:#1F3864;stroke-width:1;" x1="1658.8455" x2="1783.813" y1="1047.0586" y2="1047.0586"/><line style="stroke:#1F3864;stroke-width:1;" x1="1783.813" x2="1783.813" y1="1047.0586" y2="1335.2773"/><polygon fill="#1F3864" points="1779.813,1325.2773,1783.813,1335.2773,1787.813,1325.2773,1783.813,1329.2773" style="stroke:#1F3864;stroke-width:1;"/><line style="stroke:#1F3864;stroke-width:1;" x1="128.0781" x2="1783.813" y1="1335.2773" y2="1335.2773"/><line style="stroke:#1F3864;stroke-width:1;" x1="910.4065" x2="910.4065" y1="962.2539" y2="982.2539"/><polygon fill="#1F3864" points="906.4065,972.2539,910.4065,982.2539,914.4065,972.2539,910.4065,976.2539" style="stroke:#1F3864;stroke-width:1;"/><line style="stroke:#1F3864;stroke-width:1;" x1="1033.5371" x2="1801.813" y1="1367.2773" y2="1367.2773"/><polygon fill="#1F3864" points="1797.813,1176.2656,1801.813,1166.2656,1805.813,1176.2656,1801.813,1172.2656" style="stroke:#1F3864;stroke-width:1;"/><line style="stroke:#1F3864;stroke-width:1;" x1="1801.813" x2="1801.813" y1="950.2539" y2="1367.2773"/><line style="stroke:#1F3864;stroke-width:1;" x1="1801.813" x2="922.4065" y1="950.2539" y2="950.2539"/><polygon fill="#1F3864" points="932.4065,946.2539,922.4065,950.2539,932.4065,954.2539,928.4065,950.2539" style="stroke:#1F3864;stroke-width:1;"/><line style="stroke:#1F3864;stroke-width:1;" x1="910.4065" x2="910.4065" y1="1335.2773" y2="1355.2773"/><polygon fill="#1F3864" points="906.4065,1345.2773,910.4065,1355.2773,914.4065,1345.2773,910.4065,1349.2773" style="stroke:#1F3864;stroke-width:1;"/><line style="stroke:#1F3864;stroke-width:1;" x1="910.4065" x2="910.4065" y1="918.2539" y2="938.2539"/><polygon fill="#1F3864" points="906.4065,928.2539,910.4065,938.2539,914.4065,928.2539,910.4065,932.2539" style="stroke:#1F3864;stroke-width:1;"/><line style="stroke:#1F3864;stroke-width:1;" x1="910.4065" x2="910.4065" y1="1379.2773" y2="1399.2773"/><polygon fill="#1F3864" points="906.4065,1389.2773,910.4065,1399.2773,914.4065,1389.2773,910.4065,1393.2773" style="stroke:#1F3864;stroke-width:1;"/><line style="stroke:#1F3864;stroke-width:1;" x1="910.4065" x2="910.4065" y1="1432.082" y2="1452.082"/><polygon fill="#1F3864" points="906.4065,1442.082,910.4065,1452.082,914.4065,1442.082,910.4065,1446.082" style="stroke:#1F3864;stroke-width:1;"/><line style="stroke:#1F3864;stroke-width:1;" x1="910.4065" x2="910.4065" y1="1484.8867" y2="1504.8867"/><polygon fill="#1F3864" points="906.4065,1494.8867,910.4065,1504.8867,914.4065,1494.8867,910.4065,1498.8867" style="stroke:#1F3864;stroke-width:1;"/><!--SRC=[TLRRRkD637ttLn1eWSY8ayZEhNMmM2IxpjPeSq7aT84MxM8YKVRKyensPfJ46mJeKu6-jWNwqeS-hh_3Vv8lAJcI4kLIm80K3Sav90yFOwTIvSA86IIOYY9pXrgvOp53s3TIP2txqdaaFo5qkur34JjvATtyG9i4pHkTQGDVz0QxsmSxBrc9U3eskb19PVbsPx1r63OjZT5NrM7tSFEhdQqMjAmJnj6pVr9Sed65GG85sOh8yqp6macj817AGeQWnAKS2uU5sICFcK8mqbDKS2aoIKwvMIuiAbVPwrXaaTD6Z15Ujy5Do3BGXMot0FfdI1SNfeml2gTdzFgnA2yNOD5QEjbhOMOH0gMLzzfFKnbFEA37k5p4HX2y5Gf0qPrCAyG43nZUKDdOoDnVyXG2XVkUSLSfSZnAmWSHb4DWS8pNiF7pZsBjq_xQ3-7Qrnz-kjdizCBRBpVQUyy3533JZkFamZBcdRNT7iHK-DWjFnkqjSz4sCafcLnHLuCstFtw5n38UUwYkOg3_2hfW1MPw-vqO6UhTXeUHuEp4GoFHoTmRj5O_bxM9jPAuRKiAyILfQeK-N9Xxd7nZM2TZgVB1GJUlOvBBPVf_7_Xm2euEPDg78aK1nyBaPL-NDlz9pK7wdv1NMiqMzMWE0CLay6CFD0mbs8zovb9S4Q4-eukSNkrwHawNHX5TbjX5yuLTrSR6e-aDg5aSl-AAf5fw-7PVxTSACgTV9sd9kT374dqx63kq0QRlVQwqv4pb5ImCi7h5L-AHmMEIl9P2F0wbzGwwCFgBln2eCh2DH1I9kL5ee0uavGUSRO4qqgrcRBrydSdBZ9fuBvLy1ul8ke74i_Av_hmX4Ap1uYnaChdCXZ1Hi7jycbaqZecleN2IVh33w9zqObr87_gvJ_YomwvqQcaNDYZV2UmD9vLEb2cqgh75dqkH1xhMs-vzp6tbchsQExxDCpg3FciVyEft781MmPp5CvFj7FiHpDSAFHQHjLfvCVM9T-YvIB3yhnvTycraiq-bGabhCtyTSQSUjKDGmXoCPR4YfhqfoSHsSseomJHRbX4LPqWkG09ZElpHxZxxGyW2YmNYVHK3Ux- -TD_f2VzslKGCho1kjGIgg3WyDfX4veLIZgYy55fK4yQIIm6OGSsmp2iuSKJZAVtKm51BuIP7SC6T4Eu7rn6-bwwoNuy3LOyujp8It9QwS3w-dgRvnPruM0Rx0iQKi4eASAnHffr0PP_G-zvLYow4aqpdxA6HPvfaK1mH3kCpgkB4dJKg4FYKoJ7Il1EeNnNGTeZ0ZMQv_Y6ECEyL2veFojzbGZS05FoLBX9fwuh-y9j4s0K6vrbm7JWMPoGLZHWiaN5XoDqOfsKy4WRV64NF6NF1HBbSPYy8lKRtkiEOIFcgkIRqghgecdkCj9Rwp6DTBxtMACgo6-SoLQ_RHQJLgyXUSX5XiuFAwlZZ5GBwzvHCPqVAAdeBaK_blAc3b1zgm5_HCj3GuiS2OEVPzkyzQ7YRfwJ7FBAoyIS0blUtpcLrFSenhf7vVebcaXAAVRtWg2j_zb2TvjPsW5CKn7ZmsVeXNomzw3HrV33rOG59wZ4jlmtXe2wXZPwlQJrkQ26iVeaqbQV_1IUdxxT7mtAVGWHTIyJrdqenzbdTqgTOVnLd-ZwjF2NBVybrIwOCRPIRKB8I-K_]--></g></svg>