<svg xmlns="http://www.w3.org/2000/svg" xmlns:xlink="http://www.w3.org/1999/xlink" contentStyleType="text/css" data-diagram-type="SEQUENCE" height="1027px" preserveAspectRatio="none" style="width:1309px;height:1027px;background:#FFFFFF;" version="1.1" viewBox="0 0 1309 1027" width="1309px" zoomAndPan="magnify"><defs/><g><g><title>Express REST</title><rect fill="#FFFFFF" height="146.2188" style="stroke:#181818;stroke-width:1;" width="10" x="308.687" y="115.2188"/></g><g><title>Express REST</title><rect fill="#FFFFFF" height="80.4141" style="stroke:#181818;stroke-width:1;" width="10" x="308.687" y="817.9063"/></g><g><title>Socket.IO</title><rect fill="#FFFFFF" height="334.6563" style="stroke:#181818;stroke-width:1;" width="10" x="622.8701" y="329.0469"/></g><g><title>database.js</title><rect fill="#FFFFFF" height="26.8047" style="stroke:#181818;stroke-width:1;" width="10" x="949.4395" y="395.6563"/></g><g><title>database.js</title><rect fill="#FFFFFF" height="26.8047" style="stroke:#181818;stroke-width:1;" width="10" x="949.4395" y="449.2656"/></g><g><title>database.js</title><rect fill="#FFFFFF" height="26.8047" style="stroke:#181818;stroke-width:1;" width="10" x="949.4395" y="502.875"/></g><g><title>database.js</title><rect fill="#FFFFFF" height="26.8047" style="stroke:#181818;stroke-width:1;" width="10" x="949.4395" y="556.4844"/></g><g><title>database.js</title><rect fill="#FFFFFF" height="26.8047" style="stroke:#181818;stroke-width:1;" width="10" x="949.4395" y="844.7109"/></g><g><title>Client A</title><rect fill="#000000" fill-opacity="0.00000" height="937.3203" width="8" x="42.1118" y="45.6094"/><line style="stroke:#2E75B6;stroke-width:0.5;stroke-dasharray:5,5;" x1="46" x2="46" y1="45.6094" y2="982.9297"/></g><g><title>Express REST</title><rect fill="#000000" fill-opacity="0.00000" height="937.3203" width="8" x="309.687" y="45.6094"/><line style="stroke:#2E75B6;stroke-width:0.5;stroke-dasharray:5,5;" x1="313.5442" x2="313.5442" y1="45.6094" y2="982.9297"/></g><g><title>Socket.IO</title><rect fill="#000000" fill-opacity="0.00000" height="937.3203" width="8" x="623.8701" y="45.6094"/><line style="stroke:#2E75B6;stroke-width:0.5;stroke-dasharray:5,5;" x1="627.0264" x2="627.0264" y1="45.6094" y2="982.9297"/></g><g><title>database.js</title><rect fill="#000000" fill-opacity="0.00000" height="937.3203" width="8" x="950.4395" y="45.6094"/><line style="stroke:#2E75B6;stroke-width:0.5;stroke-dasharray:5,5;" x1="953.7983" x2="953.7983" y1="45.6094" y2="982.9297"/></g><g><title>Client B</title><rect fill="#000000" fill-opacity="0.00000" height="937.3203" width="8" x="1043.3533" y="45.6094"/><line style="stroke:#2E75B6;stroke-width:0.5;stroke-dasharray:5,5;" x1="1047.0806" x2="1047.0806" y1="45.6094" y2="982.9297"/></g><g class="participant participant-head" data-participant="CA"><rect fill="#D6E4F0" height="39.6094" rx="2.5" ry="2.5" style="stroke:#181818;stroke-width:0.5;" width="82.2236" x="5" y="5"/><text fill="#000000" font-family="Arial" font-size="11" lengthAdjust="spacing" textLength="42.8667" x="24.6785" y="22.2104">Client A</text><text fill="#000000" font-family="Arial" font-size="11" lengthAdjust="spacing" textLength="68.2236" x="12" y="35.0151">(expéditeur)</text></g><g class="participant participant-tail" data-participant="CA"><rect fill="#D6E4F0" height="39.6094" rx="2.5" ry="2.5" style="stroke:#181818;stroke-width:0.5;" width="82.2236" x="5" y="981.9297"/><text fill="#000000" font-family="Arial" font-size="11" lengthAdjust="spacing" textLength="42.8667" x="24.6785" y="999.1401">Client A</text><text fill="#000000" font-family="Arial" font-size="11" lengthAdjust="spacing" textLength="68.2236" x="12" y="1011.9448">(expéditeur)</text></g><g class="participant participant-head" data-participant="EXP"><rect fill="#E8ECF0" height="39.6094" rx="2.5" ry="2.5" style="stroke:#181818;stroke-width:0.5;" width="112.2856" x="257.5442" y="5"/><text fill="#000000" font-family="Arial" font-size="11" lengthAdjust="spacing" textLength="74.9858" x="276.1941" y="22.2104">Express REST</text><text fill="#000000" font-family="Arial" font-size="11" lengthAdjust="spacing" textLength="98.2856" x="264.5442" y="35.0151">(/upload, /history)</text></g><g class="participant participant-tail" data-participant="EXP"><rect fill="#E8ECF0" height="39.6094" rx="2.5" ry="2.5" style="stroke:#181818;stroke-width:0.5;" width="112.2856" x="257.5442" y="981.9297"/><text fill="#000000" font-family="Arial" font-size="11" lengthAdjust="spacing" textLength="74.9858" x="276.1941" y="999.1401">Express REST</text><text fill="#000000" font-family="Arial" font-size="11" lengthAdjust="spacing" textLength="98.2856" x="264.5442" y="1011.9448">(/upload, /history)</text></g><g class="participant participant-head" data-participant="SIO"><rect fill="#E8ECF0" height="39.6094" rx="2.5" ry="2.5" style="stroke:#181818;stroke-width:0.5;" width="69.6875" x="593.0264" y="5"/><text fill="#000000" font-family="Arial" font-size="11" lengthAdjust="spacing" textLength="52.6099" x="601.5652" y="22.2104">Socket.IO</text><text fill="#000000" font-family="Arial" font-size="11" lengthAdjust="spacing" textLength="55.6875" x="600.0264" y="35.0151">(server.js)</text></g><g class="participant participant-tail" data-participant="SIO"><rect fill="#E8ECF0" height="39.6094" rx="2.5" ry="2.5" style="stroke:#181818;stroke-width:0.5;" width="69.6875" x="593.0264" y="981.9297"/><text fill="#000000" font-family="Arial" font-size="11" lengthAdjust="spacing" textLength="52.6099" x="601.5652" y="999.1401">Socket.IO</text><text fill="#000000" font-family="Arial" font-size="11" lengthAdjust="spacing" textLength="55.6875" x="600.0264" y="1011.9448">(server.js)</text></g><g class="participant participant-head" data-participant="DB"><rect fill="#F5F7FA" height="39.6094" rx="2.5" ry="2.5" style="stroke:#181818;stroke-width:0.5;" width="77.2822" x="915.7983" y="5"/><text fill="#000000" font-family="Arial" font-size="11" lengthAdjust="spacing" textLength="63.2822" x="922.7983" y="22.2104">database.js</text><text fill="#000000" font-family="Arial" font-size="11" lengthAdjust="spacing" textLength="44.4888" x="932.1951" y="35.0151">(SQLite)</text></g><g class="participant participant-tail" data-participant="DB"><rect fill="#F5F7FA" height="39.6094" rx="2.5" ry="2.5" style="stroke:#181818;stroke-width:0.5;" width="77.2822" x="915.7983" y="981.9297"/><text fill="#000000" font-family="Arial" font-size="11" lengthAdjust="spacing" textLength="63.2822" x="922.7983" y="999.1401">database.js</text><text fill="#000000" font-family="Arial" font-size="11" lengthAdjust="spacing" textLength="44.4888" x="932.1951" y="1011.9448">(SQLite)</text></g><g class="participant participant-head" data-participant="CB"><rect fill="#D6E4F0" height="39.6094" rx="2.5" ry="2.5" style="stroke:#181818;stroke-width:0.5;" width="88.5454" x="1003.0806" y="5"/><text fill="#000000" font-family="Arial" font-size="11" lengthAdjust="spacing" textLength="42.8882" x="1025.9092" y="22.2104">Client B</text><text fill="#000000" font-family="Arial" font-size="11" lengthAdjust="spacing" textLength="74.5454" x="1010.0806" y="35.0151">(destinataire)</text></g><g class="participant participant-tail" data-participant="CB"><rect fill="#D6E4F0" height="39.6094" rx="2.5" ry="2.5" style="stroke:#181818;stroke-width:0.5;" width="88.5454" x="1003.0806" y="981.9297"/><text fill="#000000" font-family="Arial" font-size="11" lengthAdjust="spacing" textLength="42.8882" x="1025.9092" y="999.1401">Client B</text><text fill="#000000" font-family="Arial" font-size="11" lengthAdjust="spacing" textLength="74.5454" x="1010.0806" y="1011.9448">(destinataire)</text></g><g><title>Express REST</title><rect fill="#FFFFFF" height="146.2188" style="stroke:#181818;stroke-width:1;" width="10" x="308.687" y="115.2188"/></g><g><title>Express REST</title><rect fill="#FFFFFF" height="80.4141" style="stroke:#181818;stroke-width:1;" width="10" x="308.687" y="817.9063"/></g><g><title>Socket.IO</title><rect fill="#FFFFFF" height="334.6563" style="stroke:#181818;stroke-width:1;" width="10" x="622.8701" y="329.0469"/></g><g><title>database.js</title><rect fill="#FFFFFF" height="26.8047" style="stroke:#181818;stroke-width:1;" width="10" x="949.4395" y="395.6563"/></g><g><title>database.js</title><rect fill="#FFFFFF" height="26.8047" style="stroke:#181818;stroke-width:1;" width="10" x="949.4395" y="449.2656"/></g><g><title>database.js</title><rect fill="#FFFFFF" height="26.8047" style="stroke:#181818;stroke-width:1;" width="10" x="949.4395" y="502.875"/></g><g><title>database.js</title><rect fill="#FFFFFF" height="26.8047" style="stroke:#181818;stroke-width:1;" width="10" x="949.4395" y="556.4844"/></g><g><title>database.js</title><rect fill="#FFFFFF" height="26.8047" style="stroke:#181818;stroke-width:1;" width="10" x="949.4395" y="844.7109"/></g><rect fill="#EEEEEE" height="3" style="stroke:#EEEEEE;stroke-width:1;" width="1302.2151" x="0" y="75.0117"/><line style="stroke:#000000;stroke-width:1;" x1="0" x2="1302.2151" y1="75.0117" y2="75.0117"/><line style="stroke:#000000;stroke-width:1;" x1="0" x2="1302.2151" y1="78.0117" y2="78.0117"/><rect fill="#EEEEEE" height="20.8047" style="stroke:#000000;stroke-width:2;" width="191.6543" x="555.2804" y="65.6094"/><text fill="#000000" font-family="Arial" font-size="11" font-weight="bold" lengthAdjust="spacing" textLength="173.8247" x="561.2804" y="79.8198">Phase 1 — Upload du fichier</text><g class="message" data-participant-1="CA" data-participant-2="EXP"><polygon fill="#181818" points="296.687,111.2188,306.687,115.2188,296.687,119.2188,300.687,115.2188" style="stroke:#181818;stroke-width:1;"/><line style="stroke:#181818;stroke-width:1.5;" x1="46.1118" x2="302.687" y1="115.2188" y2="115.2188"/><text fill="#000000" font-family="Arial" font-size="11" lengthAdjust="spacing" textLength="136.4097" x="109.1946" y="110.6245">POST /upload (multipart)</text></g><g class="message" data-participant-1="EXP" data-participant-2="EXP"><line style="stroke:#181818;stroke-width:1.5;" x1="318.687" x2="360.687" y1="142.0234" y2="142.0234"/><line style="stroke:#181818;stroke-width:1.5;" x1="360.687" x2="360.687" y1="142.0234" y2="155.0234"/><line style="stroke:#181818;stroke-width:1.5;" x1="319.687" x2="360.687" y1="155.0234" y2="155.0234"/><polygon fill="#181818" points="329.687,151.0234,319.687,155.0234,329.687,159.0234,325.687,155.0234" style="stroke:#181818;stroke-width:1;"/><text fill="#000000" font-family="Arial" font-size="11" lengthAdjust="spacing" textLength="206.8408" x="325.687" y="137.4292">Multer enregistre le fichier sur disque</text></g><g class="message" data-participant-1="EXP" data-participant-2="EXP"><line style="stroke:#181818;stroke-width:1.5;" x1="318.687" x2="360.687" y1="181.8281" y2="181.8281"/><line style="stroke:#181818;stroke-width:1.5;" x1="360.687" x2="360.687" y1="181.8281" y2="194.8281"/><line style="stroke:#181818;stroke-width:1.5;" x1="319.687" x2="360.687" y1="194.8281" y2="194.8281"/><polygon fill="#181818" points="329.687,190.8281,319.687,194.8281,329.687,198.8281,325.687,194.8281" style="stroke:#181818;stroke-width:1;"/><text fill="#000000" font-family="Arial" font-size="11" lengthAdjust="spacing" textLength="280.1831" x="325.687" y="177.2339">detectFileSignature() — lecture 24 premiers octets</text></g><g class="message" data-participant-1="EXP" data-participant-2="EXP"><line style="stroke:#181818;stroke-width:1.5;" x1="318.687" x2="360.687" y1="221.6328" y2="221.6328"/><line style="stroke:#181818;stroke-width:1.5;" x1="360.687" x2="360.687" y1="221.6328" y2="234.6328"/><line style="stroke:#181818;stroke-width:1.5;" x1="319.687" x2="360.687" y1="234.6328" y2="234.6328"/><polygon fill="#181818" points="329.687,230.6328,319.687,234.6328,329.687,238.6328,325.687,234.6328" style="stroke:#181818;stroke-width:1;"/><text fill="#000000" font-family="Arial" font-size="11" lengthAdjust="spacing" textLength="266.3901" x="325.687" y="217.0386">isMimeTypeConsistent() — MIME vs magic bytes</text></g><g class="message" data-participant-1="EXP" data-participant-2="CA"><polygon fill="#181818" points="57.1118,257.4375,47.1118,261.4375,57.1118,265.4375,53.1118,261.4375" style="stroke:#181818;stroke-width:1;"/><line style="stroke:#181818;stroke-width:1.5;stroke-dasharray:2,2;" x1="51.1118" x2="312.687" y1="261.4375" y2="261.4375"/><text fill="#000000" font-family="Arial" font-size="11" lengthAdjust="spacing" textLength="227.686" x="66.0564" y="256.8433">200 OK { filePath, fileName, mimeType }</text></g><rect fill="#EEEEEE" height="3" style="stroke:#EEEEEE;stroke-width:1;" width="1302.2151" x="0" y="288.8398"/><line style="stroke:#000000;stroke-width:1;" x1="0" x2="1302.2151" y1="288.8398" y2="288.8398"/><line style="stroke:#000000;stroke-width:1;" x1="0" x2="1302.2151" y1="291.8398" y2="291.8398"/><rect fill="#EEEEEE" height="20.8047" style="stroke:#000000;stroke-width:2;" width="218.4346" x="541.8903" y="279.4375"/><text fill="#000000" font-family="Arial" font-size="11" font-weight="bold" lengthAdjust="spacing" textLength="200.605" x="547.8903" y="293.6479">Phase 2 — Émission du message</text><g class="message" data-participant-1="CA" data-participant-2="SIO"><polygon fill="#181818" points="610.8701,325.0469,620.8701,329.0469,610.8701,333.0469,614.8701,329.0469" style="stroke:#181818;stroke-width:1;"/><line style="stroke:#181818;stroke-width:1.5;" x1="46.1118" x2="616.8701" y1="329.0469" y2="329.0469"/><text fill="#000000" font-family="Arial" font-size="11" lengthAdjust="spacing" textLength="378.7104" x="145.1357" y="324.4526">socket.emit('chat:private', { to: B, filePath, messageType: 'image' })</text></g><g class="message" data-participant-1="SIO" data-participant-2="SIO"><line style="stroke:#181818;stroke-width:1.5;" x1="632.8701" x2="674.8701" y1="355.8516" y2="355.8516"/><line style="stroke:#181818;stroke-width:1.5;" x1="674.8701" x2="674.8701" y1="355.8516" y2="368.8516"/><line style="stroke:#181818;stroke-width:1.5;" x1="633.8701" x2="674.8701" y1="368.8516" y2="368.8516"/><polygon fill="#181818" points="643.8701,364.8516,633.8701,368.8516,643.8701,372.8516,639.8701,368.8516" style="stroke:#181818;stroke-width:1;"/><text fill="#000000" font-family="Arial" font-size="11" lengthAdjust="spacing" textLength="255.0356" x="639.8701" y="351.2573">Vérification du token (socket.handshake.auth)</text></g><g class="message" data-participant-1="SIO" data-participant-2="DB"><polygon fill="#181818" points="937.4395,391.6563,947.4395,395.6563,937.4395,399.6563,941.4395,395.6563" style="stroke:#181818;stroke-width:1;"/><line style="stroke:#181818;stroke-width:1.5;" x1="632.8701" x2="943.4395" y1="395.6563" y2="395.6563"/><text fill="#000000" font-family="Arial" font-size="11" lengthAdjust="spacing" textLength="193.1338" x="694.5879" y="391.062">checkRateLimit(username, 20/10s)</text></g><g class="message" data-participant-1="DB" data-participant-2="SIO"><polygon fill="#181818" points="643.8701,418.4609,633.8701,422.4609,643.8701,426.4609,639.8701,422.4609" style="stroke:#181818;stroke-width:1;"/><line style="stroke:#181818;stroke-width:1.5;stroke-dasharray:2,2;" x1="637.8701" x2="953.4395" y1="422.4609" y2="422.4609"/><text fill="#000000" font-family="Arial" font-size="11" lengthAdjust="spacing" textLength="15.8716" x="785.719" y="417.8667">OK</text></g><g class="message" data-participant-1="SIO" data-participant-2="DB"><polygon fill="#181818" points="937.4395,445.2656,947.4395,449.2656,937.4395,453.2656,941.4395,449.2656" style="stroke:#181818;stroke-width:1;"/><line style="stroke:#181818;stroke-width:1.5;" x1="632.8701" x2="943.4395" y1="449.2656" y2="449.2656"/><text fill="#000000" font-family="Arial" font-size="11" lengthAdjust="spacing" textLength="260.7559" x="660.7769" y="444.6714">SELECT Users WHERE username = destinataire</text></g><g class="message" data-participant-1="DB" data-participant-2="SIO"><polygon fill="#181818" points="643.8701,472.0703,633.8701,476.0703,643.8701,480.0703,639.8701,476.0703" style="stroke:#181818;stroke-width:1;"/><line style="stroke:#181818;stroke-width:1.5;stroke-dasharray:2,2;" x1="637.8701" x2="953.4395" y1="476.0703" y2="476.0703"/><text fill="#000000" font-family="Arial" font-size="11" lengthAdjust="spacing" textLength="93.5483" x="746.8806" y="471.4761">utilisateur vérifié</text></g><g class="message" data-participant-1="SIO" data-participant-2="DB"><polygon fill="#181818" points="937.4395,498.875,947.4395,502.875,937.4395,506.875,941.4395,502.875" style="stroke:#181818;stroke-width:1;"/><line style="stroke:#181818;stroke-width:1.5;" x1="632.8701" x2="943.4395" y1="502.875" y2="502.875"/><text fill="#000000" font-family="Arial" font-size="11" lengthAdjust="spacing" textLength="297.5693" x="642.3701" y="498.2808">INSERT INTO Messages(sender, receiver, file_path, ...)</text></g><g class="message" data-participant-1="DB" data-participant-2="SIO"><polygon fill="#181818" points="643.8701,525.6797,633.8701,529.6797,643.8701,533.6797,639.8701,529.6797" style="stroke:#181818;stroke-width:1;"/><line style="stroke:#181818;stroke-width:1.5;stroke-dasharray:2,2;" x1="637.8701" x2="953.4395" y1="529.6797" y2="529.6797"/><text fill="#000000" font-family="Arial" font-size="11" lengthAdjust="spacing" textLength="61.7622" x="762.7737" y="525.0854">lastID = 42</text></g><g class="message" data-participant-1="SIO" data-participant-2="DB"><polygon fill="#181818" points="937.4395,552.4844,947.4395,556.4844,937.4395,560.4844,941.4395,556.4844" style="stroke:#181818;stroke-width:1;"/><line style="stroke:#181818;stroke-width:1.5;" x1="632.8701" x2="943.4395" y1="556.4844" y2="556.4844"/><text fill="#000000" font-family="Arial" font-size="11" lengthAdjust="spacing" textLength="231.3921" x="675.4587" y="551.8901">SELECT * FROM Messages WHERE id = 42</text></g><g class="message" data-participant-1="DB" data-participant-2="SIO"><polygon fill="#181818" points="643.8701,579.2891,633.8701,583.2891,643.8701,587.2891,639.8701,583.2891" style="stroke:#181818;stroke-width:1;"/><line style="stroke:#181818;stroke-width:1.5;stroke-dasharray:2,2;" x1="637.8701" x2="953.4395" y1="583.2891" y2="583.2891"/><text fill="#000000" font-family="Arial" font-size="11" lengthAdjust="spacing" textLength="240.7056" x="673.302" y="578.6948">message complet (avec timestamp calculé)</text></g><g class="message" data-participant-1="SIO" data-participant-2="CA"><polygon fill="#181818" points="57.1118,606.0938,47.1118,610.0938,57.1118,614.0938,53.1118,610.0938" style="stroke:#181818;stroke-width:1;"/><line style="stroke:#181818;stroke-width:1.5;stroke-dasharray:2,2;" x1="51.1118" x2="621.8701" y1="610.0938" y2="610.0938"/><text fill="#000000" font-family="Arial" font-size="11" lengthAdjust="spacing" textLength="148.0381" x="260.4719" y="605.4995">ack({ ok: true, message })</text></g><g class="message" data-participant-1="SIO" data-participant-2="CA"><polygon fill="#181818" points="57.1118,632.8984,47.1118,636.8984,57.1118,640.8984,53.1118,636.8984" style="stroke:#181818;stroke-width:1;"/><line style="stroke:#181818;stroke-width:1.5;" x1="51.1118" x2="621.8701" y1="636.8984" y2="636.8984"/><text fill="#000000" font-family="Arial" font-size="11" lengthAdjust="spacing" textLength="173.1265" x="247.9277" y="632.3042">emit('chat:message', message)</text></g><g class="message" data-participant-1="SIO" data-participant-2="CB"><polygon fill="#181818" points="1035.3533,659.7031,1045.3533,663.7031,1035.3533,667.7031,1039.3533,663.7031" style="stroke:#181818;stroke-width:1;"/><line style="stroke:#181818;stroke-width:1.5;" x1="627.8701" x2="1041.3533" y1="663.7031" y2="663.7031"/><text fill="#000000" font-family="Arial" font-size="11" lengthAdjust="spacing" textLength="173.1265" x="751.0485" y="659.1089">emit('chat:message', message)</text></g><rect fill="#EEEEEE" height="3" style="stroke:#EEEEEE;stroke-width:1;" width="1302.2151" x="0" y="691.1055"/><line style="stroke:#000000;stroke-width:1;" x1="0" x2="1302.2151" y1="691.1055" y2="691.1055"/><line style="stroke:#000000;stroke-width:1;" x1="0" x2="1302.2151" y1="694.1055" y2="694.1055"/><rect fill="#EEEEEE" height="20.8047" style="stroke:#000000;stroke-width:2;" width="273.6602" x="514.2775" y="681.7031"/><text fill="#000000" font-family="Arial" font-size="11" font-weight="bold" lengthAdjust="spacing" textLength="255.8306" x="520.2775" y="695.9136">Phase 3 — Affichage et accusé de lecture</text><g class="message" data-participant-1="CA" data-participant-2="CA"><line style="stroke:#181818;stroke-width:1.5;" x1="46.1118" x2="88.1118" y1="734.8047" y2="734.8047"/><line style="stroke:#181818;stroke-width:1.5;" x1="88.1118" x2="88.1118" y1="734.8047" y2="747.8047"/><line style="stroke:#181818;stroke-width:1.5;" x1="47.1118" x2="88.1118" y1="747.8047" y2="747.8047"/><polygon fill="#181818" points="57.1118,743.8047,47.1118,747.8047,57.1118,751.8047,53.1118,747.8047" style="stroke:#181818;stroke-width:1;"/><text fill="#000000" font-family="Arial" font-size="11" lengthAdjust="spacing" textLength="110.9346" x="53.1118" y="730.2104">appendMessage() →</text><text fill="#000000" font-family="monospace" font-size="14" lengthAdjust="spacing" textLength="126.4307" x="167.543" y="729.5029">(Cannot decode)</text><text fill="#000000" font-family="Arial" font-size="11" lengthAdjust="spacing" textLength="9.2168" x="297.4702" y="730.2104">✓</text></g><g class="message" data-participant-1="CB" data-participant-2="CB"><line style="stroke:#181818;stroke-width:1.5;" x1="1047.3533" x2="1089.3533" y1="778.1016" y2="778.1016"/><line style="stroke:#181818;stroke-width:1.5;" x1="1089.3533" x2="1089.3533" y1="778.1016" y2="791.1016"/><line style="stroke:#181818;stroke-width:1.5;" x1="1048.3533" x2="1089.3533" y1="791.1016" y2="791.1016"/><polygon fill="#181818" points="1058.3533,787.1016,1048.3533,791.1016,1058.3533,795.1016,1054.3533,791.1016" style="stroke:#181818;stroke-width:1;"/><text fill="#000000" font-family="Arial" font-size="11" lengthAdjust="spacing" textLength="110.9346" x="1054.3533" y="773.5073">appendMessage() →</text><text fill="#000000" font-family="monospace" font-size="14" lengthAdjust="spacing" textLength="126.4307" x="1168.7844" y="772.7998">(Cannot decode)</text></g><g class="message" data-participant-1="CB" data-participant-2="EXP"><polygon fill="#181818" points="329.687,813.9063,319.687,817.9063,329.687,821.9063,325.687,817.9063" style="stroke:#181818;stroke-width:1;"/><line style="stroke:#181818;stroke-width:1.5;" x1="323.687" x2="1046.3533" y1="817.9063" y2="817.9063"/><text fill="#000000" font-family="Arial" font-size="11" lengthAdjust="spacing" textLength="198.2632" x="583.8885" y="813.312">POST /messages/seen { sender: A }</text></g><g class="message" data-participant-1="EXP" data-participant-2="DB"><polygon fill="#181818" points="937.4395,840.7109,947.4395,844.7109,937.4395,848.7109,941.4395,844.7109" style="stroke:#181818;stroke-width:1;"/><line style="stroke:#181818;stroke-width:1.5;" x1="318.687" x2="943.4395" y1="844.7109" y2="844.7109"/><text fill="#000000" font-family="Arial" font-size="11" lengthAdjust="spacing" textLength="178.8789" x="544.6238" y="840.1167">UPDATE Messages SET seen = 1</text></g><g class="message" data-participant-1="DB" data-participant-2="EXP"><polygon fill="#181818" points="329.687,867.5156,319.687,871.5156,329.687,875.5156,325.687,871.5156" style="stroke:#181818;stroke-width:1;"/><line style="stroke:#181818;stroke-width:1.5;stroke-dasharray:2,2;" x1="323.687" x2="953.4395" y1="871.5156" y2="871.5156"/><text fill="#000000" font-family="Arial" font-size="11" lengthAdjust="spacing" textLength="15.8716" x="628.6274" y="866.9214">OK</text></g><g class="message" data-participant-1="EXP" data-participant-2="SIO"><polygon fill="#181818" points="615.8701,894.3203,625.8701,898.3203,615.8701,902.3203,619.8701,898.3203" style="stroke:#181818;stroke-width:1;"/><line style="stroke:#181818;stroke-width:1.5;" x1="313.687" x2="621.8701" y1="898.3203" y2="898.3203"/><text fill="#000000" font-family="Arial" font-size="11" lengthAdjust="spacing" textLength="139.729" x="400.9141" y="893.7261">émettre chat:seen vers A</text></g><g class="message" data-participant-1="SIO" data-participant-2="CA"><polygon fill="#181818" points="57.1118,921.125,47.1118,925.125,57.1118,929.125,53.1118,925.125" style="stroke:#181818;stroke-width:1;"/><line style="stroke:#181818;stroke-width:1.5;" x1="51.1118" x2="626.8701" y1="925.125" y2="925.125"/><text fill="#000000" font-family="Arial" font-size="11" lengthAdjust="spacing" textLength="177.0527" x="248.4646" y="920.5308">emit('chat:seen', { partner: B })</text></g><g class="message" data-participant-1="CA" data-participant-2="CA"><line style="stroke:#181818;stroke-width:1.5;" x1="46.1118" x2="88.1118" y1="951.9297" y2="951.9297"/><line style="stroke:#181818;stroke-width:1.5;" x1="88.1118" x2="88.1118" y1="951.9297" y2="964.9297"/><line style="stroke:#181818;stroke-width:1.5;" x1="47.1118" x2="88.1118" y1="964.9297" y2="964.9297"/><polygon fill="#181818" points="57.1118,960.9297,47.1118,964.9297,57.1118,968.9297,53.1118,964.9297" style="stroke:#181818;stroke-width:1;"/><text fill="#000000" font-family="Arial" font-size="11" lengthAdjust="spacing" textLength="225.7632" x="53.1118" y="947.3354">handleSeenNotification() → ticks ✓ → ✓✓</text></g><!--SRC=[bLNRRjj647tdLmpi1qc5ebljf12g0AH4eK8iInNbjWy5YiroB6x5MtUNIbmZG9yAzBNjOtz0tw4_oPTqbgHesfKJ592X2-USENFcOhKLSSeaYy37MvQ5Ufh4-ff52BOKBBJKgUUU-1MXtwyzLFXBXZ77EIh5DcY7OXC3nrYZh4L9L6aIgsEKWs7opfOoUGTQPdY2Bd-u3WJVnWI1VkVoHD2LkAM_69r4-YZ7IPX8E1-uhowTbnPO5Ai55ocBDPoDGq6QmFunRkBxzB3tXSPCjiw0AHZRS3vvwLvCUuynxljKckGhrriJhfkbOSByDdG3eNGYxmgq-yCIpjsltF5Jk9VmBUhER45OXNA7ilEpAZ3UR74QupFDtZA554aexzihabb09WwSJo-dhwRsoS8S2lTHQH4JWv0bQEnKbO4r6i4o86xemyVV_eQRl1hmCxWLF10eOJIoo8eNh_EIXh1SU6ieYuPcH1CWJEQMnRWMEwRHn5acjeBCAOY8C9Qu8OyaGeWLlSea-49Hwnw3VDJ8zLI4wD7iC9r9RBPoYI7zJjzWS07KYOX852HSerQF6OIQYmZNTocEQSWeCJbIKindSnTs2YAs4HpUtcaiiGIcOeSmwFLWyGRkIMQ8IwQ3Tlx9B48Ref8MFbW-FYgxPkSWJtJu8n9AYIGsZaR5c3yuQXe-15LC15MYcmqUC3rCPKxPQ9C0dGp1QTTqb2n6m10QWah01doe-K-ibc6k4dnts4j1VZDT2j795cDebea35ligO5lii4m7hIEMHci8F42-NH7hbJ3oCfhOEFTWqElsUwgMTU9OX7XH9LsygPj3J-kqddlbZjTmeqplll_6NRbmf8OHr2Vs-GIP5g5Gp2mix8eA3_jFv9nTU-vgJM_h1PG7Hz46ndGZsdI9E8gT-MIC_YdDdUvqEfyeC6HApoOazsBm-Kg_WEbgCQ_obZKBlu0_c-CuCJo9qX0rDDaEEMYQFwLPb09d8S_2mxxrH04K6exJpFYsUG_9TfZVrMg4pDIKMlEmsWIM4OqgzY7I-MnaJOkPnTfIV9alXNrhbjy8e98OvvawxAdfrM9N-r68JrDgKkcSsT_V_uIlHRG19VdehBn4galDEdiD7__vooA5Hvt_1rlYwbUkh4Xr5TA-t4CnBKEmQVDFdRkyupVBYRrs7rhjkMl8yIFed-fqaV0_wr9I5dDms4UepU7CBS_PTcPrxAS7w9bs6aH-JSofZaq9Zcb-pMLp1EZKKjnregjZKLf6_rUsodYRVwDtUlqB]--></g></svg>