<svg xmlns="http://www.w3.org/2000/svg" xmlns:xlink="http://www.w3.org/1999/xlink" contentStyleType="text/css" data-diagram-type="DESCRIPTION" height="2115px" preserveAspectRatio="none" style="width:628px;height:2115px;background:#FFFFFF;" version="1.1" viewBox="0 0 628 2115" width="628px" zoomAndPan="magnify"><defs/><g><!--cluster LanMessenger--><g class="cluster" data-entity="LanMessenger" data-source-line="15" data-uid="ent0008" id="cluster_LanMessenger"><rect fill="none" height="2102" rx="2.5" ry="2.5" style="stroke:#181818;stroke-width:1;" width="272" x="350" y="7"/><text fill="#000000" font-family="Arial" font-size="11" font-weight="bold" lengthAdjust="spacing" textLength="89.8154" x="441.0923" y="19.2104">LanMessenger</text></g><!--cluster Authentification--><g class="cluster" data-entity="Authentification" data-source-line="16" data-uid="ent0009" id="cluster_Authentification"><rect fill="none" height="263" rx="2.5" ry="2.5" style="stroke:#181818;stroke-width:1;" width="179" x="396.5" y="46"/><text fill="#000000" font-family="Arial" font-size="11" font-weight="bold" lengthAdjust="spacing" textLength="100.6704" x="435.6648" y="58.2104">Authentification</text></g><!--cluster Profil utilisateur--><g class="cluster" data-entity="Profil utilisateur" data-source-line="22" data-uid="ent0014" id="cluster_Profil utilisateur"><rect fill="none" height="229" rx="2.5" ry="2.5" style="stroke:#181818;stroke-width:1;" width="214" x="379" y="1124"/><text fill="#000000" font-family="Arial" font-size="11" font-weight="bold" lengthAdjust="spacing" textLength="101.5459" x="435.2271" y="1136.2104">Profil utilisateur</text></g><!--cluster Messagerie priv?e--><g class="cluster" data-entity="Messagerie priv.e" data-source-line="27" data-uid="ent0018" id="cluster_Messagerie priv.e"><rect fill="none" height="503" rx="2.5" ry="2.5" style="stroke:#181818;stroke-width:1;" width="209" x="381.5" y="333"/><text fill="#000000" font-family="Arial" font-size="11" font-weight="bold" lengthAdjust="spacing" textLength="113.9048" x="429.0476" y="345.2104">Messagerie privée</text></g><!--cluster Messagerie de groupe--><g class="cluster" data-entity="Messagerie de groupe" data-source-line="36" data-uid="ent0026" id="cluster_Messagerie de groupe"><rect fill="none" height="708" rx="2.5" ry="2.5" style="stroke:#181818;stroke-width:1;" width="217" x="377.5" y="1377"/><text fill="#000000" font-family="Arial" font-size="11" font-weight="bold" lengthAdjust="spacing" textLength="137.9297" x="417.0352" y="1389.2104">Messagerie de groupe</text></g><!--cluster Navigation & Recherche--><g class="cluster" data-entity="Navigation . Recherche" data-source-line="48" data-uid="ent0037" id="cluster_Navigation . Recherche"><rect fill="none" height="240" rx="2.5" ry="2.5" style="stroke:#181818;stroke-width:1;" width="224" x="374" y="860"/><text fill="#000000" font-family="Arial" font-size="11" font-weight="bold" lengthAdjust="spacing" textLength="149.5151" x="411.2424" y="872.2104">Navigation &amp; Recherche</text></g><!--entity UC01--><g class="entity" data-entity="UC01" data-source-line="17" data-uid="ent0010" id="entity_UC01"><ellipse cx="485.8373" cy="89.0543" fill="#F1F1F1" rx="38.8373" ry="12.0543" style="stroke:#181818;stroke-width:0.5;"/><text fill="#000000" font-family="Arial" font-size="11" lengthAdjust="spacing" textLength="50.6816" x="460.4965" y="91.9566">S'inscrire</text></g><!--entity UC02--><g class="entity" data-entity="UC02" data-source-line="18" data-uid="ent0011" id="entity_UC02"><ellipse cx="485.8186" cy="149.1637" fill="#F1F1F1" rx="51.3186" ry="12.6637" style="stroke:#181818;stroke-width:0.5;"/><text fill="#000000" font-family="Arial" font-size="11" lengthAdjust="spacing" textLength="72.3862" x="449.6255" y="152.0661">Se connecter</text></g><!--entity UC03--><g class="entity" data-entity="UC03" data-source-line="19" data-uid="ent0012" id="entity_UC03"><ellipse cx="486.162" cy="210.2324" fill="#F1F1F1" rx="56.662" ry="13.7324" style="stroke:#181818;stroke-width:0.5;"/><text fill="#000000" font-family="Arial" font-size="11" lengthAdjust="spacing" textLength="86.1362" x="443.0939" y="213.1347">Se déconnecter</text></g><!--entity UC04--><g class="entity" data-entity="UC04" data-source-line="20" data-uid="ent0013" id="entity_UC04"><ellipse cx="485.9369" cy="276.0874" fill="#F1F1F1" rx="73.4369" ry="17.0874" style="stroke:#181818;stroke-width:0.5;"/><text fill="#000000" font-family="Arial" font-size="11" lengthAdjust="spacing" textLength="125.4849" x="423.1945" y="278.9897">Supprimer son compte</text></g><!--entity UC05--><g class="entity" data-entity="UC05" data-source-line="23" data-uid="ent0015" id="entity_UC05"><ellipse cx="486.1688" cy="1174.8338" fill="#F1F1F1" rx="84.6688" ry="19.3338" style="stroke:#181818;stroke-width:0.5;"/><text fill="#000000" font-family="Arial" font-size="11" lengthAdjust="spacing" textLength="150.2671" x="411.0353" y="1177.7361">Modifier le nom d'affichage</text></g><!--entity UC06--><g class="entity" data-entity="UC06" data-source-line="24" data-uid="ent0016" id="entity_UC06"><ellipse cx="485.9599" cy="1250.092" fill="#F1F1F1" rx="90.9599" ry="20.592" style="stroke:#181818;stroke-width:0.5;"/><text fill="#000000" font-family="Arial" font-size="11" lengthAdjust="spacing" textLength="163.856" x="404.0319" y="1252.9943">Modifier le message de statut</text></g><!--entity UC07--><g class="entity" data-entity="UC07" data-source-line="25" data-uid="ent0017" id="entity_UC07"><ellipse cx="486.0615" cy="1320.9123" fill="#F1F1F1" rx="65.0615" ry="15.4123" style="stroke:#181818;stroke-width:0.5;"/><text fill="#000000" font-family="Arial" font-size="11" lengthAdjust="spacing" textLength="106.3369" x="432.8931" y="1323.8147">Uploader un avatar</text></g><!--entity UC08--><g class="entity" data-entity="UC08" data-source-line="28" data-uid="ent0019" id="entity_UC08"><ellipse cx="485.8983" cy="383.0797" fill="#F1F1F1" rx="83.3983" ry="19.0797" style="stroke:#181818;stroke-width:0.5;"/><text fill="#000000" font-family="Arial" font-size="11" lengthAdjust="spacing" textLength="147.501" x="412.1478" y="385.982">Envoyer un message texte</text></g><!--entity UC09--><g class="entity" data-entity="UC09" data-source-line="29" data-uid="ent0020" id="entity_UC09"><ellipse cx="485.9506" cy="451.8901" fill="#F1F1F1" rx="62.4506" ry="14.8901" style="stroke:#181818;stroke-width:0.5;"/><text fill="#000000" font-family="Arial" font-size="11" lengthAdjust="spacing" textLength="100.1924" x="435.8544" y="454.7925">Envoyer un fichier</text></g><!--entity UC10--><g class="entity" data-entity="UC10" data-source-line="30" data-uid="ent0021" id="entity_UC10"><ellipse cx="486.088" cy="521.1176" fill="#F1F1F1" rx="83.588" ry="19.1176" style="stroke:#181818;stroke-width:0.5;"/><text fill="#000000" font-family="Arial" font-size="11" lengthAdjust="spacing" textLength="147.9146" x="412.1307" y="524.0199">Envoyer un message vocal</text></g><!--entity UC11--><g class="entity" data-entity="UC11" data-source-line="31" data-uid="ent0022" id="entity_UC11"><ellipse cx="486.1229" cy="590.1246" fill="#F1F1F1" rx="63.6229" ry="15.1246" style="stroke:#181818;stroke-width:0.5;"/><text fill="#000000" font-family="Arial" font-size="11" lengthAdjust="spacing" textLength="102.9639" x="434.641" y="593.0269">Éditer un message</text></g><!--entity UC12--><g class="entity" data-entity="UC12" data-source-line="32" data-uid="ent0023" id="entity_UC12"><ellipse cx="486.0035" cy="657.8007" fill="#F1F1F1" rx="74.5035" ry="17.3007" style="stroke:#181818;stroke-width:0.5;"/><text fill="#000000" font-family="Arial" font-size="11" lengthAdjust="spacing" textLength="127.875" x="422.066" y="660.703">Supprimer un message</text></g><!--entity UC13--><g class="entity" data-entity="UC13" data-source-line="33" data-uid="ent0024" id="entity_UC13"><ellipse cx="486.0762" cy="731.1152" fill="#F1F1F1" rx="88.5762" ry="20.1152" style="stroke:#181818;stroke-width:0.5;"/><text fill="#000000" font-family="Arial" font-size="11" lengthAdjust="spacing" textLength="158.7266" x="406.7129" y="734.0176">Réagir à un message (emoji)</text></g><!--entity UC14--><g class="entity" data-entity="UC14" data-source-line="34" data-uid="ent0025" id="entity_UC14"><ellipse cx="485.8714" cy="802.8743" fill="#F1F1F1" rx="69.8714" ry="16.3743" style="stroke:#181818;stroke-width:0.5;"/><text fill="#000000" font-family="Arial" font-size="11" lengthAdjust="spacing" textLength="117.4229" x="427.16" y="805.7766">Consulter l'historique</text></g><!--entity UC15--><g class="entity" data-entity="UC15" data-source-line="37" data-uid="ent0027" id="entity_UC15"><ellipse cx="485.7872" cy="1564.0574" fill="#F1F1F1" rx="58.2872" ry="14.0574" style="stroke:#181818;stroke-width:0.5;"/><text fill="#000000" font-family="Arial" font-size="11" lengthAdjust="spacing" textLength="90.1538" x="440.7103" y="1566.9598">Créer un groupe</text></g><!--entity UC16--><g class="entity" data-entity="UC16" data-source-line="38" data-uid="ent0028" id="entity_UC16"><ellipse cx="486.0787" cy="1632.2157" fill="#F1F1F1" rx="84.0787" ry="19.2157" style="stroke:#181818;stroke-width:0.5;"/><text fill="#000000" font-family="Arial" font-size="11" lengthAdjust="spacing" textLength="148.9834" x="411.587" y="1635.1181">Rejoindre un groupe public</text></g><!--entity UC17--><g class="entity" data-entity="UC17" data-source-line="39" data-uid="ent0029" id="entity_UC17"><ellipse cx="486.1809" cy="1428.9362" fill="#F1F1F1" rx="92.6809" ry="20.9362" style="stroke:#181818;stroke-width:0.5;"/><text fill="#000000" font-family="Arial" font-size="11" lengthAdjust="spacing" textLength="167.5459" x="402.4079" y="1431.8385">Rejoindre via code d'invitation</text></g><!--entity UC18--><g class="entity" data-entity="UC18" data-source-line="40" data-uid="ent0030" id="entity_UC18"><ellipse cx="486.2373" cy="1500.2475" fill="#F1F1F1" rx="61.7373" ry="14.7475" style="stroke:#181818;stroke-width:0.5;"/><text fill="#000000" font-family="Arial" font-size="11" lengthAdjust="spacing" textLength="98.4951" x="436.9898" y="1503.1498">Quitter un groupe</text></g><!--entity UC19--><g class="entity" data-entity="UC19" data-source-line="41" data-uid="ent0031" id="entity_UC19"><ellipse cx="485.8546" cy="1701.8709" fill="#F1F1F1" rx="64.8546" ry="15.3709" style="stroke:#181818;stroke-width:0.5;"/><text fill="#000000" font-family="Arial" font-size="11" lengthAdjust="spacing" textLength="105.8535" x="432.9278" y="1704.7733">Gérer les membres</text></g><!--entity UC20--><g class="entity" data-entity="UC20" data-source-line="42" data-uid="ent0032" id="entity_UC20"><ellipse cx="486.0133" cy="1838.8027" fill="#F1F1F1" rx="69.5133" ry="16.3027" style="stroke:#181818;stroke-width:0.5;"/><text fill="#000000" font-family="Arial" font-size="11" lengthAdjust="spacing" textLength="116.6064" x="427.7101" y="1841.705">Renommer le groupe</text></g><!--entity UC21--><g class="entity" data-entity="UC21" data-source-line="43" data-uid="ent0033" id="entity_UC21"><ellipse cx="486.0306" cy="1908.0061" fill="#F1F1F1" rx="73.0306" ry="17.0061" style="stroke:#181818;stroke-width:0.5;"/><text fill="#000000" font-family="Arial" font-size="11" lengthAdjust="spacing" textLength="124.5718" x="423.7447" y="1910.9085">Transférer la propriété</text></g><!--entity UC22--><g class="entity" data-entity="UC22" data-source-line="44" data-uid="ent0034" id="entity_UC22"><ellipse cx="486.0587" cy="1976.0117" fill="#F1F1F1" rx="68.0587" ry="16.0117" style="stroke:#181818;stroke-width:0.5;"/><text fill="#000000" font-family="Arial" font-size="11" lengthAdjust="spacing" textLength="113.2764" x="429.4205" y="1978.9141">Supprimer le groupe</text></g><!--entity UC23--><g class="entity" data-entity="UC23" data-source-line="45" data-uid="ent0035" id="entity_UC23"><ellipse cx="486.0891" cy="2047.8178" fill="#F1F1F1" rx="92.0891" ry="20.8178" style="stroke:#181818;stroke-width:0.5;"/><text fill="#000000" font-family="Arial" font-size="11" lengthAdjust="spacing" textLength="166.2783" x="402.95" y="2050.7202">Régénérer le code d'invitation</text></g><!--entity UC24--><g class="entity" data-entity="UC24" data-source-line="46" data-uid="ent0036" id="entity_UC24"><ellipse cx="486.0533" cy="1769.9107" fill="#F1F1F1" rx="72.5533" ry="16.9107" style="stroke:#181818;stroke-width:0.5;"/><text fill="#000000" font-family="Arial" font-size="11" lengthAdjust="spacing" textLength="123.4976" x="424.3045" y="1772.813">Modérer les messages</text></g><!--entity UC25--><g class="entity" data-entity="UC25" data-source-line="49" data-uid="ent0038" id="entity_UC25"><ellipse cx="486.0683" cy="911.0137" fill="#F1F1F1" rx="88.0683" ry="20.0137" style="stroke:#181818;stroke-width:0.5;"/><text fill="#000000" font-family="Arial" font-size="11" lengthAdjust="spacing" textLength="157.6309" x="407.2529" y="913.916">Rechercher dans l'historique</text></g><!--entity UC26--><g class="entity" data-entity="UC26" data-source-line="50" data-uid="ent0039" id="entity_UC26"><ellipse cx="486.0866" cy="988.1173" fill="#F1F1F1" rx="96.0866" ry="21.6173" style="stroke:#181818;stroke-width:0.5;"/><text fill="#000000" font-family="Arial" font-size="11" lengthAdjust="spacing" textLength="174.8184" x="398.6774" y="991.0197">Palette de commandes (Ctrl+K)</text></g><!--entity UC27--><g class="entity" data-entity="UC27" data-source-line="51" data-uid="ent0040" id="entity_UC27"><ellipse cx="485.9144" cy="1063.7829" fill="#F1F1F1" rx="84.4144" ry="19.2829" style="stroke:#181818;stroke-width:0.5;"/><text fill="#000000" font-family="Arial" font-size="11" lengthAdjust="spacing" textLength="149.7139" x="411.0575" y="1066.6852">Consulter les chats récents</text></g><!--entity Anon--><g class="entity" data-entity="Anon" data-source-line="7" data-uid="ent0002" id="entity_Anon"><ellipse cx="287.9858" cy="92" fill="#F1F1F1" rx="16" ry="16" style="stroke:#181818;stroke-width:0.5;"/><path d="M287.9858,112 C291.9858,112 294.9858,112 298.9858,108 C306.9858,108 314.9858,116 314.9858,124 L314.9858,128 C314.9858,132 310.9858,136 306.9858,136 L268.9858,136 C264.9858,136 260.9858,132 260.9858,128 L260.9858,124 C260.9858,116 268.9858,108 276.9858,108 C280.9858,112 283.9858,112 287.9858,112" fill="#F1F1F1" style="stroke:#181818;stroke-width:0.5;"/><text fill="#000000" font-family="Arial" font-size="11" lengthAdjust="spacing" textLength="56.5791" x="246" y="146.7104">Utilisateur</text><text fill="#000000" font-family="Arial" font-size="11" lengthAdjust="spacing" textLength="83.9717" x="246" y="159.5151">non authentifié</text></g><!--entity User--><g class="entity" data-entity="User" data-source-line="8" data-uid="ent0003" id="entity_User"><ellipse cx="287.9009" cy="923" fill="#F1F1F1" rx="16" ry="16" style="stroke:#181818;stroke-width:0.5;"/><path d="M287.9009,943 C291.9009,943 294.9009,943 298.9009,939 C306.9009,939 314.9009,947 314.9009,955 L314.9009,959 C314.9009,963 310.9009,967 306.9009,967 L268.9009,967 C264.9009,967 260.9009,963 260.9009,959 L260.9009,955 C260.9009,947 268.9009,939 276.9009,939 C280.9009,943 283.9009,943 287.9009,943" fill="#F1F1F1" style="stroke:#181818;stroke-width:0.5;"/><text fill="#000000" font-family="Arial" font-size="11" lengthAdjust="spacing" textLength="56.5791" x="258" y="977.7104">Utilisateur</text><text fill="#000000" font-family="Arial" font-size="11" lengthAdjust="spacing" textLength="59.8018" x="258" y="990.5151">authentifié</text></g><!--entity Mod--><g class="entity" data-entity="Mod" data-source-line="9" data-uid="ent0004" id="entity_Mod"><ellipse cx="153.9043" cy="1691" fill="#F1F1F1" rx="16" ry="16" style="stroke:#181818;stroke-width:0.5;"/><path d="M153.9043,1711 C157.9043,1711 160.9043,1711 164.9043,1707 C172.9043,1707 180.9043,1715 180.9043,1723 L180.9043,1727 C180.9043,1731 176.9043,1735 172.9043,1735 L134.9043,1735 C130.9043,1735 126.9043,1731 126.9043,1727 L126.9043,1723 C126.9043,1715 134.9043,1707 142.9043,1707 C146.9043,1711 149.9043,1711 153.9043,1711" fill="#F1F1F1" style="stroke:#181818;stroke-width:0.5;"/><text fill="#000000" font-family="Arial" font-size="11" lengthAdjust="spacing" textLength="63.8086" x="122" y="1745.7104">Modérateur</text><text fill="#000000" font-family="Arial" font-size="11" lengthAdjust="spacing" textLength="56.2031" x="122" y="1758.5151">de groupe</text></g><!--entity Creator--><g class="entity" data-entity="Creator" data-source-line="10" data-uid="ent0005" id="entity_Creator"><ellipse cx="34.1016" cy="1881" fill="#F1F1F1" rx="16" ry="16" style="stroke:#181818;stroke-width:0.5;"/><path d="M34.1016,1901 C38.1016,1901 41.1016,1901 45.1016,1897 C53.1016,1897 61.1016,1905 61.1016,1913 L61.1016,1917 C61.1016,1921 57.1016,1925 53.1016,1925 L15.1016,1925 C11.1016,1925 7.1016,1921 7.1016,1917 L7.1016,1913 C7.1016,1905 15.1016,1897 23.1016,1897 C27.1016,1901 30.1016,1901 34.1016,1901" fill="#F1F1F1" style="stroke:#181818;stroke-width:0.5;"/><text fill="#000000" font-family="Arial" font-size="11" lengthAdjust="spacing" textLength="48.2861" x="6" y="1935.7104">Créateur</text><text fill="#000000" font-family="Arial" font-size="11" lengthAdjust="spacing" textLength="56.2031" x="6" y="1948.5151">de groupe</text></g><!--link Mod to User--><g class="link" data-entity-1="Mod" data-entity-2="User" data-source-line="12" data-uid="lnk6" id="link_Mod_User"><path d="M162.52,1674.23 C185.75,1539.07 253.1416,1147.02 276.4016,1011.66" fill="none" id="Mod-to-User" style="stroke:#181818;stroke-width:1;"/><polygon fill="none" points="279.45,993.92,270.4883,1010.6439,282.3149,1012.6761,279.45,993.92" style="stroke:#181818;stroke-width:1;"/></g><!--link Creator to Mod--><g class="link" data-entity-1="Creator" data-entity-2="Mod" data-source-line="13" data-uid="lnk7" id="link_Creator_Mod"><path d="M62.07,1864.41 C81.19,1833.62 97.2115,1807.8198 116.3515,1777.0098" fill="none" id="Creator-to-Mod" style="stroke:#181818;stroke-width:1;"/><polygon fill="none" points="125.85,1761.72,111.2549,1773.8437,121.4482,1780.176,125.85,1761.72" style="stroke:#181818;stroke-width:1;"/></g><!--link Anon to UC01--><g class="link" data-entity-1="Anon" data-entity-2="UC01" data-source-line="55" data-uid="lnk41" id="link_Anon_UC01"><path d="M330.09,112.71 C365.9,107.23 411.289,100.2773 444.889,95.1373" fill="none" id="Anon-to-UC01" style="stroke:#181818;stroke-width:1;"/><polygon fill="#181818" points="450.82,94.23,441.3186,91.637,445.8775,94.9861,442.5284,99.545,450.82,94.23" style="stroke:#181818;stroke-width:1;"/></g><!--link Anon to UC02--><g class="link" data-entity-1="Anon" data-entity-2="UC02" data-source-line="56" data-uid="lnk42" id="link_Anon_UC02"><path d="M330.09,125.29 C362.87,130.31 402.7092,136.4014 435.9992,141.5014" fill="none" id="Anon-to-UC02" style="stroke:#181818;stroke-width:1;"/><polygon fill="#181818" points="441.93,142.41,433.6395,137.0932,436.9877,141.6528,432.4281,145.001,441.93,142.41" style="stroke:#181818;stroke-width:1;"/></g><!--link User to UC03--><g class="link" data-entity-1="User" data-entity-2="UC03" data-source-line="57" data-uid="lnk43" id="link_User_UC03"><path d="M289.28,906.4 C290.62,759.83 298.33,291.2 342,241 C363.59,216.18 393.9371,208.8314 424.5771,207.3414" fill="none" id="User-to-UC03" style="stroke:#181818;stroke-width:1;"/><polygon fill="#181818" points="430.57,207.05,421.3863,203.4919,425.5759,207.2929,421.7749,211.4824,430.57,207.05" style="stroke:#181818;stroke-width:1;"/></g><!--link User to UC04--><g class="link" data-entity-1="User" data-entity-2="UC04" data-source-line="58" data-uid="lnk44" id="link_User_UC04"><path d="M290.41,906.38 C294.96,775.76 310.82,393.96 342,348 C363.14,316.83 396.2646,300.347 428.1246,289.977" fill="none" id="User-to-UC04" style="stroke:#181818;stroke-width:1;"/><polygon fill="#181818" points="433.83,288.12,424.0339,287.1019,429.0755,289.6675,426.5099,294.7091,433.83,288.12" style="stroke:#181818;stroke-width:1;"/></g><!--link User to UC05--><g class="link" data-entity-1="User" data-entity-2="UC05" data-source-line="59" data-uid="lnk45" id="link_User_UC05"><path d="M295.61,993.75 C302.45,1026.23 315.96,1069.93 342,1100 C366.5,1128.29 398.7467,1145.2985 429.3467,1157.1785" fill="none" id="User-to-UC05" style="stroke:#181818;stroke-width:1;"/><polygon fill="#181818" points="434.94,1159.35,427.9978,1152.3639,430.2789,1157.5404,425.1024,1159.8216,434.94,1159.35" style="stroke:#181818;stroke-width:1;"/></g><!--link User to UC06--><g class="link" data-entity-1="User" data-entity-2="UC06" data-source-line="60" data-uid="lnk46" id="link_User_UC06"><path d="M292.32,993.68 C298.24,1059.83 312.81,1181 342,1212 C357.14,1228.08 372.4468,1236.1258 393.8068,1241.7358" fill="none" id="User-to-UC06" style="stroke:#181818;stroke-width:1;"/><polygon fill="#181818" points="399.61,1243.26,391.9213,1237.105,394.774,1241.9899,389.8891,1244.8426,399.61,1243.26" style="stroke:#181818;stroke-width:1;"/></g><!--link User to UC07--><g class="link" data-entity-1="User" data-entity-2="UC07" data-source-line="61" data-uid="lnk47" id="link_User_UC07"><path d="M289.95,993.71 C292.65,1075.24 302.94,1246.05 342,1288 C361.97,1309.44 386.8896,1317.5917 414.8596,1320.8217" fill="none" id="User-to-UC07" style="stroke:#181818;stroke-width:1;"/><polygon fill="#181818" points="420.82,1321.51,412.3383,1316.5039,415.853,1320.9364,411.4205,1324.4511,420.82,1321.51" style="stroke:#181818;stroke-width:1;"/></g><!--link User to UC08--><g class="link" data-entity-1="User" data-entity-2="UC08" data-source-line="62" data-uid="lnk48" id="link_User_UC08"><path d="M290.52,906.15 C295.1,785.59 310.42,455.61 342,419 C357.47,401.07 374.5694,392.6857 397.5894,387.6357" fill="none" id="User-to-UC08" style="stroke:#181818;stroke-width:1;"/><polygon fill="#181818" points="403.45,386.35,393.8019,384.3714,398.5661,387.4214,395.5162,392.1856,403.45,386.35" style="stroke:#181818;stroke-width:1;"/></g><!--link User to UC09--><g class="link" data-entity-1="User" data-entity-2="UC09" data-source-line="63" data-uid="lnk49" id="link_User_UC09"><path d="M291.11,906.39 C296.82,796.56 314.04,515.12 342,484 C362.32,461.39 388.8543,453.4499 417.7443,450.8399" fill="none" id="User-to-UC09" style="stroke:#181818;stroke-width:1;"/><polygon fill="#181818" points="423.72,450.3,414.3966,447.126,418.7403,450.7499,415.1164,455.0936,423.72,450.3" style="stroke:#181818;stroke-width:1;"/></g><!--link User to UC10--><g class="link" data-entity-1="User" data-entity-2="UC10" data-source-line="64" data-uid="lnk50" id="link_User_UC10"><path d="M288.94,906.45 C289.72,815.13 296.59,607.83 342,557 C357.78,539.34 374.9596,531.0267 397.9596,525.9767" fill="none" id="User-to-UC10" style="stroke:#181818;stroke-width:1;"/><polygon fill="#181818" points="403.82,524.69,394.1716,522.7132,398.9363,525.7623,395.8872,530.527,403.82,524.69" style="stroke:#181818;stroke-width:1;"/></g><!--link User to UC11--><g class="link" data-entity-1="User" data-entity-2="UC11" data-source-line="65" data-uid="lnk51" id="link_User_UC11"><path d="M290.21,906.46 C293.32,827.09 304.27,663.31 342,623 C362.37,601.24 388.0256,593.1227 416.3556,590.0227" fill="none" id="User-to-UC11" style="stroke:#181818;stroke-width:1;"/><polygon fill="#181818" points="422.32,589.37,412.9383,586.3727,417.3497,589.9139,413.8085,594.3252,422.32,589.37" style="stroke:#181818;stroke-width:1;"/></g><!--link User to UC12--><g class="link" data-entity-1="User" data-entity-2="UC12" data-source-line="66" data-uid="lnk52" id="link_User_UC12"><path d="M292.44,906.28 C298.46,841.12 313.11,722.97 342,693 C360.18,674.14 380.8207,665.8094 406.1207,661.3594" fill="none" id="User-to-UC12" style="stroke:#181818;stroke-width:1;"/><polygon fill="#181818" points="412.03,660.32,402.4731,657.9395,407.1056,661.1862,403.859,665.8186,412.03,660.32" style="stroke:#181818;stroke-width:1;"/></g><!--link User to UC13--><g class="link" data-entity-1="User" data-entity-2="UC13" data-source-line="67" data-uid="lnk53" id="link_User_UC13"><path d="M290.1,906.22 C293.53,865.22 305.08,805 342,769 C358.37,753.04 374.8202,745.0396 396.9102,739.4996" fill="none" id="User-to-UC13" style="stroke:#181818;stroke-width:1;"/><polygon fill="#181818" points="402.73,738.04,393.0273,736.3495,397.8802,739.2563,394.9734,744.1092,402.73,738.04" style="stroke:#181818;stroke-width:1;"/></g><!--link User to UC14--><g class="link" data-entity-1="User" data-entity-2="UC14" data-source-line="68" data-uid="lnk54" id="link_User_UC14"><path d="M314.61,906.15 C322.44,895.08 331.73,883.84 342,875 C372.85,848.43 409.646,830.8853 440.246,818.8553" fill="none" id="User-to-UC14" style="stroke:#181818;stroke-width:1;"/><polygon fill="#181818" points="445.83,816.66,435.9905,816.2303,441.1767,818.4894,438.9175,823.6756,445.83,816.66" style="stroke:#181818;stroke-width:1;"/></g><!--link User to UC15--><g class="link" data-entity-1="User" data-entity-2="UC15" data-source-line="69" data-uid="lnk55" id="link_User_UC15"><path d="M290.06,993.9 C293.58,1122.49 306.68,1491.79 342,1532 C363.15,1556.08 392.1439,1563.8018 422.2039,1565.8518" fill="none" id="User-to-UC15" style="stroke:#181818;stroke-width:1;"/><polygon fill="#181818" points="428.19,1566.26,419.483,1561.6569,423.2016,1565.9198,418.9387,1569.6384,428.19,1566.26" style="stroke:#181818;stroke-width:1;"/></g><!--link User to UC16--><g class="link" data-entity-1="User" data-entity-2="UC16" data-source-line="70" data-uid="lnk56" id="link_User_UC16"><path d="M289.7,993.64 C292.31,1131.15 303.38,1549.12 342,1595 C357.36,1613.24 374.5741,1621.8128 397.7341,1626.9828" fill="none" id="User-to-UC16" style="stroke:#181818;stroke-width:1;"/><polygon fill="#181818" points="403.59,1628.29,395.6777,1622.4253,398.7101,1627.2007,393.9347,1630.2331,403.59,1628.29" style="stroke:#181818;stroke-width:1;"/></g><!--link User to UC17--><g class="link" data-entity-1="User" data-entity-2="UC17" data-source-line="71" data-uid="lnk57" id="link_User_UC17"><path d="M289.8,993.85 C292.25,1085.91 302.18,1295.6 342,1353 C362.19,1382.11 391.5503,1398.8151 421.8503,1410.4751" fill="none" id="User-to-UC17" style="stroke:#181818;stroke-width:1;"/><polygon fill="#181818" points="427.45,1412.63,420.487,1405.6646,422.7836,1410.8343,417.6139,1413.1308,427.45,1412.63" style="stroke:#181818;stroke-width:1;"/></g><!--link User to UC18--><g class="link" data-entity-1="User" data-entity-2="UC18" data-source-line="72" data-uid="lnk58" id="link_User_UC18"><path d="M290.6,993.57 C295.33,1111.74 310.92,1431.78 342,1467 C362.4,1490.12 389.4851,1498.2016 418.6851,1500.8816" fill="none" id="User-to-UC18" style="stroke:#181818;stroke-width:1;"/><polygon fill="#181818" points="424.66,1501.43,416.0633,1496.6242,419.6809,1500.973,415.3321,1504.5907,424.66,1501.43" style="stroke:#181818;stroke-width:1;"/></g><!--link User to UC25--><g class="link" data-entity-1="User" data-entity-2="UC25" data-source-line="73" data-uid="lnk59" id="link_User_UC25"><path d="M318.34,944.16 C344.93,938.87 379.1954,932.0511 413.4154,925.2411" fill="none" id="User-to-UC25" style="stroke:#181818;stroke-width:1;"/><polygon fill="#181818" points="419.3,924.07,409.6924,921.9035,414.3962,925.0459,411.2538,929.7497,419.3,924.07" style="stroke:#181818;stroke-width:1;"/></g><!--link User to UC26--><g class="link" data-entity-1="User" data-entity-2="UC26" data-source-line="74" data-uid="lnk60" id="link_User_UC26"><path d="M318.34,955.69 C343.23,960.51 374.0896,966.4984 406.7496,972.8284" fill="none" id="User-to-UC26" style="stroke:#181818;stroke-width:1;"/><polygon fill="#181818" points="412.64,973.97,404.5655,968.3306,407.7313,973.0186,403.0433,976.1845,412.64,973.97" style="stroke:#181818;stroke-width:1;"/></g><!--link User to UC27--><g class="link" data-entity-1="User" data-entity-2="UC27" data-source-line="75" data-uid="lnk61" id="link_User_UC27"><path d="M311.32,993.77 C319.48,1006.09 329.77,1018.44 342,1027 C362.07,1041.04 381.213,1048.4136 404.663,1053.8136" fill="none" id="User-to-UC27" style="stroke:#181818;stroke-width:1;"/><polygon fill="#181818" points="410.51,1055.16,402.6372,1049.2424,405.6375,1054.038,400.8419,1057.0383,410.51,1055.16" style="stroke:#181818;stroke-width:1;"/></g><!--link Mod to UC19--><g class="link" data-entity-1="Mod" data-entity-2="UC19" data-source-line="76" data-uid="lnk62" id="link_Mod_UC19"><path d="M186.05,1716.49 C239.88,1713.88 345.527,1708.7604 416.107,1705.3404" fill="none" id="Mod-to-UC19" style="stroke:#181818;stroke-width:1;"/><polygon fill="#181818" points="422.1,1705.05,412.917,1701.4903,417.1059,1705.292,413.3041,1709.4809,422.1,1705.05" style="stroke:#181818;stroke-width:1;"/></g><!--link Mod to UC24--><g class="link" data-entity-1="Mod" data-entity-2="UC24" data-source-line="77" data-uid="lnk63" id="link_Mod_UC24"><path d="M186.05,1722.89 C240.68,1731.5 348.9432,1748.5558 419.3032,1759.6458" fill="none" id="Mod-to-UC24" style="stroke:#181818;stroke-width:1;"/><polygon fill="#181818" points="425.23,1760.58,416.9625,1755.2275,420.291,1759.8015,415.717,1763.13,425.23,1760.58" style="stroke:#181818;stroke-width:1;"/></g><!--link Creator to UC20--><g class="link" data-entity-1="Creator" data-entity-2="UC20" data-source-line="78" data-uid="lnk64" id="link_Creator_UC20"><path d="M62.12,1898.58 C79.13,1893 101.62,1886.22 122,1882 C224.54,1860.77 339.7078,1849.5019 412.8878,1843.8519" fill="none" id="Creator-to-UC20" style="stroke:#181818;stroke-width:1;"/><polygon fill="#181818" points="418.87,1843.39,409.5888,1840.0947,413.8848,1843.7749,410.2046,1848.0709,418.87,1843.39" style="stroke:#181818;stroke-width:1;"/></g><!--link Creator to UC21--><g class="link" data-entity-1="Creator" data-entity-2="UC21" data-source-line="79" data-uid="lnk65" id="link_Creator_UC21"><path d="M62.14,1908 C130.45,1908 305.31,1908 406.98,1908" fill="none" id="Creator-to-UC21" style="stroke:#181818;stroke-width:1;"/><polygon fill="#181818" points="412.98,1908,403.98,1904,407.98,1908,403.98,1912,412.98,1908" style="stroke:#181818;stroke-width:1;"/></g><!--link Creator to UC22--><g class="link" data-entity-1="Creator" data-entity-2="UC22" data-source-line="80" data-uid="lnk66" id="link_Creator_UC22"><path d="M62.14,1912.1 C134.06,1922.97 324.8074,1951.7935 422.4774,1966.5535" fill="none" id="Creator-to-UC22" style="stroke:#181818;stroke-width:1;"/><polygon fill="#181818" points="428.41,1967.45,420.1087,1962.1501,423.4661,1966.7029,418.9133,1970.0603,428.41,1967.45" style="stroke:#181818;stroke-width:1;"/></g><!--link Creator to UC23--><g class="link" data-entity-1="Creator" data-entity-2="UC23" data-source-line="81" data-uid="lnk67" id="link_Creator_UC23"><path d="M62.34,1918.01 C79.44,1924.21 101.94,1932.24 122,1939 C219.23,1971.78 243.59,1979.94 342,2009 C369.15,2017.02 393.5756,2023.7929 419.2156,2030.6829" fill="none" id="Creator-to-UC23" style="stroke:#181818;stroke-width:1;"/><polygon fill="#181818" points="425.01,2032.24,417.3564,2026.0414,420.1813,2030.9424,415.2803,2033.7673,425.01,2032.24" style="stroke:#181818;stroke-width:1;"/></g><!--SRC=[XLN1Rjim3BtdAuWSrWv3WTffq_OIe0Ys7ROMNRlUTc5jnb5hIvuaP-lMVS3-OjTyXtziT1Gbbfri1nyeFLAFv2ETqyo2LQ15DhUG2as95KeEp9EG9MeieCJa2JEwiyyvGNEDCikf1S34AkskyHiPLRGlKvfXbTjtIjfhB0WkjS1yz_sT-44GHGCOh2B2yDwAN1YqLEalKYe9MDavIIjcebuE0GrSykbET0zvRqXxv9LAwwLU8rE2JAkgf1MChpnggklbJinK4pA2UJ8QZevU9Yxw-joTD85Wi2aN33-Yl29ZI6QaX_1p0BwmCBpSa4smARwx1gWC9MWOS7SWf4aqDyVbCZsEEW22H4d9hpN17IJkGJZh7chKGLLbgKL16WpNEr55QJTldZ3qLvltZLOpaKErBNoFEPU1q-9mN0AfkDq7EECqv-plmvxkzoYuOCrBN7zZqLRM-un3d_ioLvYoJyKQMQ35JNfdNSvNBgGM19peebvIZ_DRkL3FBfWdOEdxjWxdU-5DPc9Rsul_nbse1FCrF3eEuVNlLDW0xe7HlfxreHqHtBAaCw6X_jDcSKY5UXIllKz74bCb3Kzeqv63kJ2iSF6rsZnmyey2jyQcK-9cjXpVrbnnj8uMRkbH2PbgsYAXh1voaNY7yJw7XK2MBpD8UNOMmgu7otcTXLwVAc7jBZgTJh_dhR4Ifk7I5G-QZ0TUT6cmrWkduI1YtEdnPutIpDPXaHMfk9FrqlgbDOttzheNkj_gh5vAJtblCU9HR_xQQQwQwVECUzs-neN8Lk7W5TnICYVDNw_VcniDAMUyIqbnf_Stc1DtfH4Hhw42UGaRE9nQdR_vuAKQZ_TAbS6yPQm1Lbh2otMJWji8dCIW-NdmifwuVTgsua6pqBqr2goJm3eDh75WdGNMUM1Tj2sU_BOL1LR09GguH06NAE0I1LoYW4iKS8a3lpZmusgvVzp4gNnhi1Is_xk9atRd8EeUnDs3qLy0]--></g></svg>